<?xml version="1.0" encoding="UTF-8" standalone="no"?>
<svg
   xmlns:dc="http://purl.org/dc/elements/1.1/"
   xmlns:cc="http://creativecommons.org/ns#"
   xmlns:rdf="http://www.w3.org/1999/02/22-rdf-syntax-ns#"
   xmlns:svg="http://www.w3.org/2000/svg"
   xmlns="http://www.w3.org/2000/svg"
   xmlns:sodipodi="http://sodipodi.sourceforge.net/DTD/sodipodi-0.dtd"
   xmlns:inkscape="http://www.inkscape.org/namespaces/inkscape"
   role="img"
   viewBox="0 0 24 24"
   version="1.1"
   id="svg6"
   sodipodi:docname="centos.svg"
   inkscape:version="0.92.4 (5da689c313, 2019-01-14)">
  <metadata
     id="metadata12">
    <rdf:RDF>
      <cc:Work
         rdf:about="">
        <dc:format>image/svg+xml</dc:format>
        <dc:type
           rdf:resource="http://purl.org/dc/dcmitype/StillImage" />
        <dc:title>Debian icon</dc:title>
      </cc:Work>
    </rdf:RDF>
  </metadata>
  <defs
     id="defs10" />
  <sodipodi:namedview
     pagecolor="#ffffff"
     bordercolor="#666666"
     borderopacity="1"
     objecttolerance="10"
     gridtolerance="10"
     guidetolerance="10"
     inkscape:pageopacity="0"
     inkscape:pageshadow="2"
     inkscape:window-width="1318"
     inkscape:window-height="706"
     id="namedview8"
     showgrid="false"
     inkscape:zoom="19.652153"
     inkscape:cx="6.4087738"
     inkscape:cy="11.079688"
     inkscape:window-x="48"
     inkscape:window-y="30"
     inkscape:window-maximized="1"
     inkscape:current-layer="svg6"
     inkscape:pagecheckerboard="true" />
  <title
     id="title2">Debian icon</title>
  <path
     style="fill:none;fill-opacity:1;stroke:#ffffff;stroke-width:0.78406566;stroke-linecap:round;stroke-linejoin:round;stroke-miterlimit:4;stroke-dasharray:none;stroke-opacity:1"
     d="M 12.012999,0.42961166 C 11.318001,0.42120591 10.614704,0.73960405 9.9449545,1.4093323 L 8.2865878,3.0677211 h -2.345576 c -1.894296,0 -2.8893291,1.089564 -2.8893291,2.8893289 V 8.3026259 L 1.3932938,9.9610154 c -1.33947856,1.3394786 -1.2726297,2.8131636 0,4.0857936 l 1.6583889,1.658388 v 2.345578 c 0,1.894317 1.089542,2.889307 2.8893291,2.889307 h 2.345576 l 1.6583667,1.658409 c 1.3395005,1.339455 2.8131865,1.272629 4.0858385,0 l 1.658366,-1.658409 h 2.345576 c 1.799765,0 2.88933,-0.99499 2.88933,-2.889307 v -2.345157 l 1.658786,-1.658809 c 1.27263,-1.27263 1.339478,-2.746315 0,-4.0857936 L 20.924065,8.3022055 V 5.95705 c 0,-1.7997649 -0.995013,-2.8893289 -2.88933,-2.8893289 H 15.689159 L 14.030793,1.4093323 C 13.394478,0.77301753 12.707999,0.43797613 12.012999,0.42961166 Z m 2.46914,10.51435434 4.540814,-4.5412345 1.900293,1.9002927 v 2.6867248 h -6.422077 m 0,2.028326 h 6.422077 v 2.686326 l -1.900293,1.900272 -4.540814,-4.540815 m -1.43432,1.43432 4.541213,4.540813 -1.899873,1.899896 H 13.002036 V 14.51723 m -2.028325,0 v 6.421657 H 8.2869861 L 6.3871138,19.038991 10.927927,14.498178 M 9.4936081,13.063858 4.9527719,17.604673 3.0528995,15.7048 v -2.686725 h 6.4216566 m 0,-2.028326 H 3.0528995 V 8.3026259 L 4.9527719,6.4027315 9.4936081,10.943966 M 10.927927,9.5096466 6.3871138,4.9688103 8.2869861,3.0689382 h 2.6867249 v 6.4216554 m 2.028325,0 V 3.0689382 h 2.687123 l 1.899873,1.8998721 -4.541213,4.5408363"
     id="path2030"
     inkscape:connector-curvature="0"
     sodipodi:nodetypes="scccsccscsscccccsccccscccscccccccccccccccccccccccccccccccccccccccc" />
</svg>
