<?xml version="1.0" encoding="UTF-8" standalone="no"?>
<svg
   xmlns:dc="http://purl.org/dc/elements/1.1/"
   xmlns:cc="http://creativecommons.org/ns#"
   xmlns:rdf="http://www.w3.org/1999/02/22-rdf-syntax-ns#"
   xmlns:svg="http://www.w3.org/2000/svg"
   xmlns="http://www.w3.org/2000/svg"
   xmlns:sodipodi="http://sodipodi.sourceforge.net/DTD/sodipodi-0.dtd"
   xmlns:inkscape="http://www.inkscape.org/namespaces/inkscape"
   width="256"
   height="249"
   viewBox="0 0 256 249"
   version="1.1"
   id="svg35"
   sodipodi:docname="deepin.svg"
   inkscape:version="0.92.4 5da689c313, 2019-01-14">
  <metadata
     id="metadata39">
    <rdf:RDF>
      <cc:Work
         rdf:about="">
        <dc:format>image/svg+xml</dc:format>
        <dc:type
           rdf:resource="http://purl.org/dc/dcmitype/StillImage" />
        <dc:title>ISO安装器-256px</dc:title>
      </cc:Work>
    </rdf:RDF>
  </metadata>
  <sodipodi:namedview
     pagecolor="#ffffff"
     bordercolor="#666666"
     borderopacity="1"
     objecttolerance="10"
     gridtolerance="10"
     guidetolerance="10"
     inkscape:pageopacity="0"
     inkscape:pageshadow="2"
     inkscape:window-width="1326"
     inkscape:window-height="718"
     id="namedview37"
     showgrid="false"
     inkscape:zoom="4.5222881"
     inkscape:cx="174.2965"
     inkscape:cy="154.53524"
     inkscape:window-x="40"
     inkscape:window-y="25"
     inkscape:window-maximized="1"
     inkscape:current-layer="ISO安装器-256px"
     inkscape:pagecheckerboard="true" />
  <!-- Generator: Sketch 39.1 (31720) - http://www.bohemiancoding.com/sketch -->
  <title
     id="title2">ISO安装器-256px</title>
  <desc
     id="desc4">Created with Sketch.</desc>
  <defs
     id="defs11">
    <linearGradient
       x1="0.49999547"
       y1="0.006944444"
       x2="0.49999547"
       y2="1"
       id="linearGradient-1">
      <stop
         stop-color="#FFDD89"
         offset="0%"
         id="stop6" />
      <stop
         stop-color="#FFAF32"
         offset="100%"
         id="stop8" />
    </linearGradient>
  </defs>
  <g
     id="g33"
     transform="matrix(1.3697996,0,0,1.3328198,-46.249615,-16.664098)"
     style="fill:none;fill-rule:evenodd;stroke:none;stroke-width:1">
    <g
       id="ISO安装器-256px">
      <path
         d="M 158.90849,18.899049 C 145.54528,14.024061 131.85661,12.709009 118.5731,13.94436 103.17087,15.159786 95.652397,19.928507 96.097396,19.06509 70.911846,28.057915 49.618367,47.398466 39.755355,74.523056 22.194548,122.82794 47.067931,176.24691 95.300382,193.83406 143.55276,211.4212 196.89272,186.51493 214.45353,138.21005 232.02099,89.905176 207.14759,36.492839 158.90849,18.899049 Z M 98.475149,185.10027 c -5.140727,-1.8796 -9.942716,-4.2706 -14.465754,-7.00033 22.475715,1.72683 51.805715,-3.45367 71.584865,-21.96401 0,0 37.70527,-30.12663 10.42756,-79.567239 0,0 4.39685,19.925023 -1.2088,36.316669 0,0 -5.34661,22.28945 -29.11083,28.76508 -35.00205,9.53744 -74.885818,-14.96369 -91.556633,-26.83235 -1.255293,-12.20075 -0.139476,-24.806644 4.330427,-37.107031 6.628475,-18.22475 19.088415,-32.444571 34.311327,-41.995296 -3.805728,26.626466 -0.797011,51.140883 3.526773,61.408916 5.804898,13.768181 15.893736,29.827741 35.573256,31.886661 19.67953,2.06556 30.53216,-16.3518 30.53216,-16.3518 10.09547,-15.342264 11.67621,-37.372692 11.52345,-37.904025 -0.15276,-0.537976 -2.68991,-1.992502 -2.68991,-1.992502 -6.79452,27.496527 -17.99916,36.681947 -17.99916,36.681947 -17.66708,17.05583 -30.18015,5.22701 -30.18015,5.22701 -13.449564,-14.44564 -4.03155,-37.923953 -4.03155,-37.923953 5.26692,-15.993148 20.61601,-39.398402 38.01077,-51.30028 2.89582,0.717302 5.81155,1.162293 8.67415,2.205036 10.52718,3.838886 19.74595,9.623783 27.54337,16.730372 -12.71897,4.642531 -33.25529,14.458922 -33.25529,14.458922 -32.55125,13.708412 -34.74967,34.443724 -34.74967,34.443724 -3.36737,21.372889 13.58903,12.326929 13.58903,12.326929 17.45455,-8.501328 26.02905,-34.994967 26.02905,-34.994967 -5.44624,-1.036102 -9.73682,0.617675 -9.73682,0.617675 -6.9672,17.19529 -21.18056,24.268675 -21.18056,24.268675 -5.59237,2.96219 -6.89415,-2.271447 -6.89415,-2.271447 -0.94313,-3.918585 4.04484,-4.589398 4.04484,-4.589398 7.74428,-3.008682 12.69903,-11.144733 13.8215,-14.472211 1.11581,-3.334119 3.19468,-3.593145 3.19468,-3.593145 10.61353,-3.387252 20.29057,-4.144403 20.29057,-4.144403 13.17726,-1.620569 33.34828,4.662453 33.34828,4.662453 4.52303,1.819819 8.86011,3.181362 12.71232,4.270596 7.39228,18.470499 8.56122,39.504662 1.23537,59.668782 -15.79411,43.46976 -63.81402,65.89204 -107.244471,50.06494 z"
         id="path11795"
         inkscape:connector-curvature="0"
         style="opacity:1;fill:#f5f5f5;stroke-width:1.22346413;fill-opacity:1" />
      <g
         id="Page-1"
         transform="translate(80,168)"
         style="fill:#b08043" />
    </g>
  </g>
</svg>
