<?xml version="1.0" encoding="UTF-8" standalone="no"?>
<svg
   xmlns:dc="http://purl.org/dc/elements/1.1/"
   xmlns:cc="http://creativecommons.org/ns#"
   xmlns:rdf="http://www.w3.org/1999/02/22-rdf-syntax-ns#"
   xmlns:svg="http://www.w3.org/2000/svg"
   xmlns="http://www.w3.org/2000/svg"
   xmlns:sodipodi="http://sodipodi.sourceforge.net/DTD/sodipodi-0.dtd"
   xmlns:inkscape="http://www.inkscape.org/namespaces/inkscape"
   width="240"
   height="64"
   version="1"
   id="svg18"
   sodipodi:docname="distrocards.svg"
   inkscape:version="0.92.4 5da689c313, 2019-01-14"
   inkscape:export-filename="/home/yutyo/git/distrocards/assets/icon.png"
   inkscape:export-xdpi="780"
   inkscape:export-ydpi="780">
  <metadata
     id="metadata24">
    <rdf:RDF>
      <cc:Work
         rdf:about="">
        <dc:format>image/svg+xml</dc:format>
        <dc:type
           rdf:resource="http://purl.org/dc/dcmitype/StillImage" />
        <dc:title></dc:title>
      </cc:Work>
    </rdf:RDF>
  </metadata>
  <defs
     id="defs22">
    <meshgradient
       inkscape:collect="always"
       id="meshgradient859"
       gradientUnits="userSpaceOnUse"
       x="71.941093"
       y="10.608522">
      <meshrow
         id="meshrow861">
        <meshpatch
           id="meshpatch863">
          <stop
             path="c 51.9348,0  103.87,0  155.804,0"
             style="stop-color:#ffffff;stop-opacity:1"
             id="stop865" />
          <stop
             path="c 0,12.4118  0,24.8236  0,37.2355"
             style="stop-color:#000000;stop-opacity:1"
             id="stop867" />
          <stop
             path="c -51.9348,0  -103.87,0  -155.804,0"
             style="stop-color:#ffffff;stop-opacity:1"
             id="stop869" />
          <stop
             path="c 0,-12.4118  0,-24.8236  0,-37.2355"
             style="stop-color:#000000;stop-opacity:1"
             id="stop871" />
        </meshpatch>
      </meshrow>
    </meshgradient>
  </defs>
  <sodipodi:namedview
     pagecolor="#ffffff"
     bordercolor="#666666"
     borderopacity="1"
     objecttolerance="10"
     gridtolerance="10"
     guidetolerance="10"
     inkscape:pageopacity="0"
     inkscape:pageshadow="2"
     inkscape:window-width="1366"
     inkscape:window-height="714"
     id="namedview20"
     showgrid="false"
     inkscape:zoom="4.4587066"
     inkscape:cx="125.824"
     inkscape:cy="38.608232"
     inkscape:window-x="0"
     inkscape:window-y="26"
     inkscape:window-maximized="1"
     inkscape:current-layer="svg18"
     inkscape:pagecheckerboard="true"
     units="mm"
     height="64mm" />
  <ellipse
     style="fill:#212121;fill-opacity:1;fill-rule:evenodd;stroke-width:1.1982069"
     id="ellipse922"
     cx="170.9043"
     cy="-9.25138"
     rx="10.212117"
     ry="11.138089"
     transform="matrix(0.97219644,0.2341668,-0.41185261,0.91125048,0,0)" />
  <ellipse
     transform="matrix(0.97129197,0.23789056,-0.40616225,0.91380098,0,0)"
     ry="5.8513007"
     rx="5.2956529"
     cy="0.073509499"
     cx="116.48154"
     id="ellipse920"
     style="fill:#212121;fill-opacity:1;fill-rule:evenodd;stroke-width:0.62539524" />
  <ellipse
     style="fill:#212121;fill-opacity:1;fill-rule:evenodd;stroke-width:0.64237922"
     id="path873-3-5"
     cx="111.40366"
     cy="4.4064269"
     rx="4.9579744"
     ry="6.5938864"
     transform="matrix(0.95531521,0.295589,-0.33188848,0.94331863,0,0)" />
  <ellipse
     style="fill:#212121;fill-opacity:1;fill-rule:evenodd;stroke-width:0.64237922"
     id="path873-3-5-6"
     cx="217.70534"
     cy="-29.737158"
     rx="4.9579744"
     ry="6.5938864"
     transform="matrix(0.95531521,0.295589,-0.33188848,0.94331863,0,0)" />
  <path
     style="opacity:0.2;stroke-width:0.73276448"
     d="m 26.556222,37.566209 -0.385367,1.413955 c -0.277466,1.018047 0.340356,2.068963 1.384849,2.353634 l 24.506654,6.679184 c 1.044915,0.284785 2.110117,-0.307428 2.387582,-1.325476 l 0.385368,-1.413954 c -0.277465,1.018047 -1.342667,1.610262 -2.387582,1.325475 L 27.941072,39.919843 c -1.044484,-0.284671 -1.662315,-1.335586 -1.38485,-2.353634 z"
     id="path2"
     inkscape:connector-curvature="0" />
  <rect
     style="fill:#404040;fill-opacity:1;stroke-width:0.73276448"
     width="38.103752"
     height="29.310577"
     x="-31.900536"
     y="-64.81044"
     rx="1.9051875"
     ry="1.9535499"
     transform="matrix(0.26295431,-0.96480829,-0.96480829,-0.26295431,0,0)"
     id="rect4" />
  <path
     style="opacity:0.2;fill:#ffffff;stroke-width:0.73276448"
     d="M 37.767908,3.8639998 C 36.723423,3.5793289 35.657984,4.1708407 35.38044,5.1891713 L 35.18776,5.8961476 C 35.465296,4.8778178 36.530735,4.286306 37.575228,4.5709769 l 24.506698,6.6791951 c 1.044915,0.284786 1.662465,1.334989 1.38492,2.35332 l 0.192679,-0.706978 c 0.277545,-1.01833 -0.339996,-2.068533 -1.38491,-2.353319 z"
     id="path16"
     inkscape:connector-curvature="0" />
  <path
     inkscape:connector-curvature="0"
     style="fill:#f5f5f5;stroke-width:1.49172783"
     d="m 45.39789,28.103311 c -1.2977,0.223031 -2.366917,-0.07457 -3.072415,-0.322507 -0.84091,-0.295669 -1.467413,-0.719988 -1.713951,-1.006733 -0.15258,-0.177645 -0.420661,-0.198141 -0.598308,-0.04557 -0.177646,0.152584 -0.197758,0.419223 -0.04516,0.59687 0.398072,0.462559 1.193092,0.943629 2.076404,1.253947 0.149416,0.05309 0.315843,0.10619 0.495747,0.15522 0.784381,0.21378 1.800732,0.410381 3.00109,0.204116 0.230258,-0.03929 0.385781,-0.2582 0.346498,-0.48846 -0.03927,-0.230259 -0.258206,-0.385782 -0.489905,-0.346888 z m 4.710226,0.63283 c 1.006555,-3.539993 3.201211,-10.151496 -3.745203,-11.463363 -6.860785,-1.288529 -7.013821,6.287589 -7.760351,8.635256 -0.431671,1.232128 -1.267581,2.654035 -2.282219,4.056607 l 1.814868,0.494635 c 0.3661,-0.611446 0.682742,-1.228639 0.91199,-1.837182 0.08859,0.106092 0.185167,0.211263 0.291154,0.315911 0.17038,0.174765 0.300986,0.381983 0.440755,0.600974 0.324287,0.512026 0.69203,1.091555 1.635254,1.408928 0.06256,0.02015 0.126529,0.04064 0.189859,0.05789 0.968607,0.26399 1.746371,0.01985 2.371459,-0.174669 0.299457,-0.09464 0.558103,-0.175673 0.783783,-0.186833 0.638856,-0.02378 1.235301,-0.181282 1.722737,-0.455067 0.07653,-0.04253 0.149135,-0.08769 0.217817,-0.135448 6.67e-4,0.842826 0.05342,1.806535 0.13824,2.777434 l 3.874403,1.055956 C 50.17439,32.197436 49.598047,30.528233 50.10773,28.737563 Z M 39.856129,23.867086 c 0,0 0,0 0,0 0.249948,-1.178065 1.069613,-2.001405 1.83266,-1.839825 0.761993,0.159756 1.178754,1.245856 0.929193,2.422481 0,0 0,0 0,0 -0.01432,0.06411 -0.02838,0.126776 -0.0449,0.187222 -0.255386,-0.0047 -0.493367,0.02324 -0.712246,0.07182 8.78e-4,-0.009 0.0035,-0.01766 0.0035,-0.02523 l 3.96e-4,-0.0014 c 0.115932,-0.674989 -0.09992,-1.267234 -0.481954,-1.323429 -0.382046,-0.05619 -0.784925,0.446274 -0.899425,1.121654 -3.87e-4,0.0014 -3.87e-4,0.0014 -3.87e-4,0.0014 -0.0507,0.293862 -0.03708,0.572794 0.02513,0.79847 -0.03506,0.01517 -0.131738,0.05222 -0.243726,0.09437 -0.08426,0.03115 -0.186424,0.07133 -0.309008,0.118326 -0.179184,-0.443101 -0.227033,-1.022029 -0.09957,-1.625846 z m 6.825746,4.937145 c -0.194445,0.605661 -1.153397,0.964304 -1.95592,0.992961 l -0.0044,2.37e-4 c -0.335059,0.01537 -0.656762,0.117861 -0.998094,0.224287 -0.574453,0.178945 -1.166049,0.364043 -1.895744,0.165169 -0.04753,-0.01291 -0.09604,-0.02769 -0.144189,-0.04393 -0.65721,-0.220861 -0.891852,-0.590954 -1.188137,-1.058241 -0.156911,-0.246855 -0.319059,-0.502869 -0.553947,-0.741599 l -0.0053,-0.0045 c -0.507583,-0.50323 -0.76542,-1.026519 -0.688419,-1.399799 0.03796,-0.184479 0.161656,-0.320832 0.369667,-0.403291 0.450693,-0.178662 0.750932,-0.293193 0.949788,-0.370418 0.220698,-0.08364 0.287815,-0.10864 0.340532,-0.137563 0.0362,-0.01951 0.07653,-0.04253 0.120097,-0.06622 0.434983,-0.240153 1.161428,-0.642065 2.045117,-0.401219 0.539713,0.147097 1.080507,0.517131 1.605249,1.099251 0.246011,0.277323 0.482191,0.437555 0.781832,0.642912 0.204778,0.139303 0.438085,0.29875 0.74349,0.539692 l 0.0053,0.0045 c 0.284854,0.219881 0.599309,0.563789 0.473378,0.957749 z m 0.214838,-1.486041 c -0.05324,-0.04854 -0.110178,-0.09496 -0.169976,-0.142188 -0.274786,-0.217136 -0.49906,-0.375667 -0.685264,-0.503723 0.174501,-0.192093 0.321124,-0.452082 0.410689,-0.752359 v 0 c 0.216666,-0.732573 0.0079,-1.431056 -0.464978,-1.561547 -0.474951,-0.129442 -1.033133,0.358526 -1.249403,1.089659 v 0 c -0.0079,0.0241 -0.01476,0.04854 -0.021,0.07157 -0.254244,-0.213083 -0.51542,-0.389402 -0.779987,-0.524901 0.0061,-0.02918 0.01239,-0.05692 0.01986,-0.08427 l 3.86e-4,-0.0014 c 0.337853,-1.347377 1.463916,-2.234093 2.513364,-1.977445 1.049853,0.255211 1.626389,1.554939 1.288158,2.903756 l -3.95e-4,0.0014 c -0.152184,0.609447 -0.467017,1.123544 -0.862858,1.481047 z"
     id="path14" />
  <path
     style="opacity:0.2;stroke-width:0.87861121"
     d="m 10.275808,56.907342 0.244505,1.740132 c 0.176044,1.252891 1.354,2.11835 2.639434,1.937733 l 30.159905,-4.237762 c 1.285962,-0.18069 2.179281,-1.337185 2.003234,-2.590078 l -0.2445,-1.740128 c 0.176039,1.252892 -0.717281,2.409388 -2.003234,2.590077 l -30.159911,4.237767 c -1.285432,0.180616 -2.463388,-0.684851 -2.639433,-1.937741 z"
     id="path2-3"
     inkscape:connector-curvature="0" />
  <rect
     style="fill:#212121;fill-opacity:1;stroke-width:0.87861121"
     width="45.687782"
     height="35.144447"
     x="-60.948338"
     y="-37.402039"
     rx="2.284389"
     ry="2.3423774"
     transform="matrix(-0.13914298,-0.9902723,-0.9902723,0.13914298,0,0)"
     id="rect4-6" />
  <path
     style="opacity:0.2;fill:#ffffff;stroke-width:0.87861121"
     d="m 6.6803331,14.471802 c -1.2854329,0.180616 -2.1793495,1.336452 -2.0032565,2.589693 l 0.1222526,0.870063 c -0.176093,-1.25324 0.7178236,-2.409076 2.0032569,-2.589691 L 36.962549,11.104096 c 1.285953,-0.18069 2.463257,0.68412 2.639357,1.937361 l -0.122259,-0.870064 c -0.176091,-1.253242 -1.353395,-2.118051 -2.639348,-1.937362 z"
     id="path16-7"
     inkscape:connector-curvature="0" />
  <path
     inkscape:connector-curvature="0"
     style="fill:#f5f5f5;stroke-width:1.78863585"
     d="m 26.556222,37.566209 c -1.324158,0.859774 -2.642954,1.037852 -3.537532,1.098525 -1.066359,0.07217 -1.957369,-0.09886 -2.364667,-0.298107 -0.252163,-0.123515 -0.55721,-0.01924 -0.680725,0.232919 -0.123514,0.252163 -0.0195,0.555439 0.232672,0.678954 0.657442,0.321244 1.76097,0.475049 2.880963,0.398958 0.189741,-0.0122 0.398222,-0.03246 0.619626,-0.06358 0.965326,-0.135638 2.178079,-0.399965 3.402932,-1.195209 0.23509,-0.152243 0.302846,-0.467012 0.150604,-0.702102 -0.152241,-0.23509 -0.46701,-0.302846 -0.703873,-0.150356 z m 5.488788,-1.531641 c -0.566158,-4.376359 -1.276769,-12.69885 -9.550513,-10.857174 -8.168355,1.826867 -4.752009,10.246014 -4.46358,13.185727 0.107451,1.56172 -0.140654,3.523804 -0.594811,5.549156 l 2.23353,-0.313833 c 0.114007,-0.846874 0.170807,-1.676677 0.135414,-2.455598 0.147806,0.07496 0.303968,0.145135 0.47026,0.210272 0.270402,0.111922 0.512347,0.278415 0.769955,0.453544 0.599563,0.410656 1.278934,0.875122 2.468285,0.778448 0.07843,-0.0074 0.158629,-0.01509 0.236563,-0.02606 1.192044,-0.167494 1.933395,-0.804492 2.530016,-1.314587 0.285138,-0.245974 0.531746,-0.457633 0.775108,-0.576719 0.692579,-0.328508 1.275164,-0.784252 1.682631,-1.316536 0.06418,-0.08306 0.122813,-0.167172 0.175876,-0.252294 0.399551,0.92824 0.913694,1.965009 1.466555,2.994531 l 4.768167,-0.66997 c -1.392594,-1.606906 -2.817409,-3.173174 -3.10321,-5.387161 z M 18.446229,35.521402 c 0,0 0,0 0,0 -0.282076,-1.416166 0.231365,-2.711113 1.148485,-2.894164 0.915099,-0.184564 1.888182,0.814803 2.170003,2.229201 0,0 0,0 0,0 0.01451,0.07743 0.0287,0.153108 0.03915,0.227499 -0.283573,0.115704 -0.532553,0.259063 -0.750706,0.41615 -0.0033,-0.01038 -0.0047,-0.02101 -0.0077,-0.02961 l -2.44e-4,-0.0018 c -0.191669,-0.798506 -0.709715,-1.348857 -1.157208,-1.229988 -0.447492,0.118871 -0.653591,0.863086 -0.460149,1.661342 2.45e-4,0.0018 2.45e-4,0.0018 2.45e-4,0.0018 0.08319,0.347746 0.230211,0.648592 0.405508,0.8678 -0.03144,0.03331 -0.120426,0.119875 -0.22386,0.219299 -0.07808,0.0742 -0.171632,0.166806 -0.284449,0.276581 -0.407083,-0.403383 -0.733745,-1.018554 -0.879041,-1.744102 z m 9.856248,2.209451 c 0.07237,0.759276 -0.814412,1.608165 -1.685007,2.019485 l -0.005,0.0025 c -0.361871,0.175475 -0.667795,0.440623 -0.993479,0.719386 -0.548215,0.468976 -1.1124,0.95284 -2.010418,1.07902 -0.05845,0.0083 -0.118916,0.01494 -0.17964,0.01983 -0.828571,0.06766 -1.262208,-0.229043 -1.809746,-0.603661 -0.289682,-0.197716 -0.589462,-0.403045 -0.961206,-0.554912 l -0.0076,-0.0025 c -0.797341,-0.314231 -1.329012,-0.768744 -1.420815,-1.216427 -0.04552,-0.221186 0.02628,-0.429958 0.216434,-0.619235 0.41199,-0.410098 0.688578,-0.67835 0.871116,-0.857526 0.203572,-0.196581 0.265683,-0.255883 0.310081,-0.312695 0.03069,-0.03863 0.06418,-0.08306 0.100973,-0.129784 0.365587,-0.470408 0.975745,-1.25695 2.063284,-1.409759 0.664214,-0.09333 1.435117,0.05844 2.288683,0.451474 0.402264,0.18912 0.73829,0.253891 1.165583,0.338349 0.291524,0.05657 0.624006,0.121841 1.074488,0.242777 l 0.0076,0.0025 c 0.417883,0.107453 0.927052,0.337547 0.974735,0.831165 z m -0.466489,-1.738854 c -0.08164,-0.02827 -0.166322,-0.05249 -0.254548,-0.07622 -0.405483,-0.109196 -0.727585,-0.177728 -0.993317,-0.230702 0.101351,-0.294203 0.139861,-0.650017 0.09645,-1.023221 v 0 c -0.107944,-0.90961 -0.668203,-1.580464 -1.25119,-1.500355 -0.584507,0.08213 -0.968563,0.883862 -0.86087,1.791702 v 0 c 0.0025,0.03036 0.0067,0.06047 0.01071,0.08881 -0.380934,-0.114451 -0.752107,-0.185121 -1.107701,-0.20921 -0.0068,-0.03517 -0.01328,-0.06858 -0.018,-0.102232 l -2.45e-4,-0.0018 c -0.265357,-1.644292 0.555659,-3.154044 1.833306,-3.367885 1.277399,-0.215607 2.527602,0.94351 2.793209,2.589574 l 2.44e-4,0.0018 c 0.120717,0.743452 0.01713,1.458815 -0.249804,2.039989 z"
     id="path14-5" />
  <flowRoot
     xml:space="preserve"
     id="flowRoot839"
     style="font-style:normal;font-variant:normal;font-weight:normal;font-stretch:normal;font-size:26.66666603px;line-height:1.25;font-family:Candombe;-inkscape-font-specification:Candombe;letter-spacing:0px;word-spacing:0px;fill:#000000;fill-opacity:1;stroke:none"><flowRegion
       id="flowRegion841"
       style="font-style:normal;font-variant:normal;font-weight:normal;font-stretch:normal;font-family:Candombe;-inkscape-font-specification:Candombe"><rect
         id="rect843"
         width="149.59496"
         height="50.687344"
         x="68.181206"
         y="5.4628448"
         style="font-style:normal;font-variant:normal;font-weight:normal;font-stretch:normal;font-family:Candombe;-inkscape-font-specification:Candombe" /></flowRegion><flowPara
       id="flowPara845"></flowPara></flowRoot>  <text
     xml:space="preserve"
     style="font-style:normal;font-weight:normal;font-size:56.46165466px;line-height:1.25;font-family:sans-serif;letter-spacing:0px;word-spacing:0px;fill:#000000;fill-opacity:1;stroke:#212121;stroke-width:5;stroke-linejoin:bevel;stroke-miterlimit:4;stroke-dasharray:none;stroke-dashoffset:0;stroke-opacity:1;paint-order:stroke fill markers"
     x="74.683701"
     y="44.409737"
     id="text849"><tspan
       sodipodi:role="line"
       id="tspan847"
       x="74.683701"
       y="44.409737"
       style="font-style:normal;font-variant:normal;font-weight:normal;font-stretch:normal;font-family:Candombe;-inkscape-font-specification:Candombe;fill:#f5f5f5;stroke:#212121;stroke-width:5;stroke-linejoin:bevel;stroke-miterlimit:4;stroke-dasharray:none;stroke-dashoffset:0;stroke-opacity:1;paint-order:stroke fill markers">DistroCards</tspan></text>
  <ellipse
     style="fill:#212121;fill-opacity:1;fill-rule:evenodd;stroke-width:0.43570778"
     id="path873"
     cx="147.57643"
     cy="34.170723"
     rx="2.9156439"
     ry="5.1584468" />
  <ellipse
     style="fill:#212121;fill-opacity:1;fill-rule:evenodd;stroke-width:0.57099187"
     id="path873-3"
     cx="84.329391"
     cy="31.591499"
     rx="2.9156439"
     ry="8.8590717" />
</svg>
