<?xml version="1.0" encoding="UTF-8" standalone="no"?>
<svg
   xmlns:dc="http://purl.org/dc/elements/1.1/"
   xmlns:cc="http://creativecommons.org/ns#"
   xmlns:rdf="http://www.w3.org/1999/02/22-rdf-syntax-ns#"
   xmlns:svg="http://www.w3.org/2000/svg"
   xmlns="http://www.w3.org/2000/svg"
   xmlns:sodipodi="http://sodipodi.sourceforge.net/DTD/sodipodi-0.dtd"
   xmlns:inkscape="http://www.inkscape.org/namespaces/inkscape"
   role="img"
   viewBox="0 0 24 24"
   version="1.1"
   id="svg6"
   sodipodi:docname="fedora.svg"
   inkscape:version="0.92.4 5da689c313, 2019-01-14">
  <metadata
     id="metadata12">
    <rdf:RDF>
      <cc:Work
         rdf:about="">
        <dc:format>image/svg+xml</dc:format>
        <dc:type
           rdf:resource="http://purl.org/dc/dcmitype/StillImage" />
        <dc:title>Fedora icon</dc:title>
      </cc:Work>
    </rdf:RDF>
  </metadata>
  <defs
     id="defs10" />
  <sodipodi:namedview
     pagecolor="#ffffff"
     bordercolor="#666666"
     borderopacity="1"
     objecttolerance="10"
     gridtolerance="10"
     guidetolerance="10"
     inkscape:pageopacity="0"
     inkscape:pageshadow="2"
     inkscape:window-width="1366"
     inkscape:window-height="714"
     id="namedview8"
     showgrid="false"
     inkscape:zoom="27.792341"
     inkscape:cx="3.6913091"
     inkscape:cy="12"
     inkscape:window-x="0"
     inkscape:window-y="26"
     inkscape:window-maximized="1"
     inkscape:current-layer="svg6" />
  <title
     id="title2">Fedora icon</title>
  <path
     d="M12 0C5.375 0 .005 5.368 0 11.992v9.286A2.728 2.728 0 0 0 2.728 24h9.277C18.63 23.997 24 18.626 24 12c0-6.627-5.373-12-12-12zm4.595 5.577c-.379 0-.516-.073-1.072-.073a2.973 2.973 0 0 0-2.973 2.968v2.583a.42.42 0 0 0 .42.42h1.953c.728 0 1.316.58 1.316 1.31 0 .734-.594 1.312-1.33 1.312h-2.358v2.985a5.632 5.632 0 0 1-5.633 5.632 4.48 4.48 0 0 1-1.244-.168c-.637-.166-1.157-.689-1.157-1.296 0-.734.533-1.268 1.33-1.268.378 0 .516.072 1.071.072 1.64 0 2.97-1.328 2.973-2.968v-2.583a.42.42 0 0 0-.42-.419H7.518c-.727 0-1.315-.58-1.315-1.31 0-.734.594-1.312 1.33-1.312H9.89V8.477a5.632 5.632 0 0 1 5.632-5.632c.472 0 .807.053 1.244.167.637.167 1.158.69 1.158 1.296 0 .735-.533 1.269-1.33 1.269z"
     id="path4"
     style="fill:#f5f5f5" />
</svg>
