<?xml version="1.0" encoding="UTF-8" standalone="no"?>
<svg
   xmlns:dc="http://purl.org/dc/elements/1.1/"
   xmlns:cc="http://creativecommons.org/ns#"
   xmlns:rdf="http://www.w3.org/1999/02/22-rdf-syntax-ns#"
   xmlns:svg="http://www.w3.org/2000/svg"
   xmlns="http://www.w3.org/2000/svg"
   xmlns:sodipodi="http://sodipodi.sourceforge.net/DTD/sodipodi-0.dtd"
   xmlns:inkscape="http://www.inkscape.org/namespaces/inkscape"
   role="img"
   viewBox="0 0 24 24"
   version="1.1"
   id="svg6"
   sodipodi:docname="mageia.svg"
   inkscape:version="0.92.4 5da689c313, 2019-01-14"
   width="24"
   height="24">
  <metadata
     id="metadata12">
    <rdf:RDF>
      <cc:Work
         rdf:about="">
        <dc:format>image/svg+xml</dc:format>
        <dc:type
           rdf:resource="http://purl.org/dc/dcmitype/StillImage" />
        <dc:title>Ubuntu icon</dc:title>
      </cc:Work>
    </rdf:RDF>
  </metadata>
  <defs
     id="defs10" />
  <sodipodi:namedview
     pagecolor="#ffffff"
     bordercolor="#666666"
     borderopacity="1"
     objecttolerance="10"
     gridtolerance="10"
     guidetolerance="10"
     inkscape:pageopacity="0"
     inkscape:pageshadow="2"
     inkscape:window-width="1326"
     inkscape:window-height="718"
     id="namedview8"
     showgrid="false"
     inkscape:zoom="6.0252675"
     inkscape:cx="2.8935772"
     inkscape:cy="3.8975876"
     inkscape:window-x="40"
     inkscape:window-y="25"
     inkscape:window-maximized="1"
     inkscape:current-layer="svg6"
     inkscape:pagecheckerboard="true" />
  <title
     id="title2">Ubuntu icon</title>
  <g
     transform="matrix(0.11051197,0,0,0.11051197,-9.1186583,-56.633218)"
     id="g5423"
     style="fill:#f5f5f5">
    <path
       d="m 177.89056,597.12767 h -0.01 c -6.6729,0 -12.10712,-5.42671 -12.11419,-12.09501 -0.01,-6.69051 5.42514,-12.12528 12.1041,-12.13236 6.68298,0 12.1162,5.42671 12.12426,12.09501 0,6.69052 -5.42512,12.1263 -12.10408,12.13337 v 0 z"
       id="path3042-0-6-4"
       style="fill:#f5f5f5;fill-opacity:1"
       inkscape:connector-curvature="0" />
    <path
       d="m 210.60812,588.24494 c -6.23094,0 -11.30246,-5.06615 -11.30657,-11.29167 -0.01,-6.24198 5.06123,-11.31635 11.2963,-11.32148 6.23916,0 11.31068,5.0651 11.31683,11.29063 0,6.24197 -5.06224,11.31635 -11.29628,11.32252 h -0.01 z"
       id="path3056-6-4-1"
       style="fill:#f5f5f5;fill-opacity:1"
       inkscape:connector-curvature="0" />
    <path
       d="m -10,-15.700835 a 7,7 0 1 1 -14,0 7,7 0 1 1 14,0 z"
       transform="matrix(1.4421651,0,0,1.4421651,215.7232,578.60266)"
       id="path4104"
       style="fill:#f5f5f5;fill-opacity:1"
       inkscape:connector-curvature="0" />
    <path
       d="m 94,-16.522263 a 11.5,11.5 0 1 1 -23,0 11.5,11.5 0 1 1 23,0 z"
       transform="matrix(0.80761247,0,0,0.80761247,140.73061,552.34319)"
       id="path4106"
       style="fill:#f5f5f5;fill-opacity:1"
       inkscape:connector-curvature="0" />
    <path
       d="m 11,-37.522263 a 10.5,10.5 0 1 1 -21,0 10.5,10.5 0 1 1 21,0 z"
       transform="matrix(0.76915473,0,0,0.76915473,187.18756,551.30398)"
       id="path4132"
       style="fill:#f5f5f5;fill-opacity:1"
       inkscape:connector-curvature="0" />
  </g>
  <path
     d="m 6.8098558,10.562589 c -1.154894,1.496936 -2.0915278,3.180648 -2.0915278,5.220355 0,4.421179 3.3549699,8.067375 7.514815,8.067375 4.159719,0 7.514814,-3.646177 7.514814,-8.067375 0,-2.04011 -0.938123,-3.670323 -2.158317,-5.220355 -0.457546,-0.480132 -1.118112,-0.408741 -1.598997,-0.101511 -1.407145,0.728113 -2.166708,1.019026 -3.7575,1.011898 -1.538551,-0.0069 -2.3469075,-0.258159 -3.7541294,-1.025259 -0.4808834,-0.293869 -1.2116125,-0.365264 -1.6691578,0.114872 z m 1.0028076,1.241924 c 1.4585683,0.806466 2.7593866,1.21563 4.4204796,1.21563 1.662499,0 2.961162,-0.409168 4.420478,-1.21563 0.796295,1.122785 1.547168,2.515022 1.547168,3.978431 0,3.624935 -2.671661,6.520207 -5.967646,6.520207 -3.2961444,0 -6.07816,-2.895253 -6.07816,-6.520207 0,-1.461479 0.8596498,-2.854766 1.6576804,-3.978431 z"
     id="path3347-1"
     style="color:#000000;font-style:normal;font-variant:normal;font-weight:normal;font-stretch:normal;font-size:medium;line-height:normal;font-family:Sans;-inkscape-font-specification:Sans;text-indent:0;text-align:start;text-decoration:none;text-decoration-line:none;letter-spacing:normal;word-spacing:normal;text-transform:none;writing-mode:lr-tb;direction:ltr;baseline-shift:baseline;text-anchor:start;display:inline;overflow:visible;visibility:visible;fill:#f5f5f5;fill-opacity:1;stroke:none;stroke-width:1.54716766;marker:none;enable-background:accumulate"
     inkscape:connector-curvature="0" />
</svg>
