<?xml version="1.0" encoding="UTF-8" standalone="no"?>
<svg
   xmlns:dc="http://purl.org/dc/elements/1.1/"
   xmlns:cc="http://creativecommons.org/ns#"
   xmlns:rdf="http://www.w3.org/1999/02/22-rdf-syntax-ns#"
   xmlns:svg="http://www.w3.org/2000/svg"
   xmlns="http://www.w3.org/2000/svg"
   xmlns:sodipodi="http://sodipodi.sourceforge.net/DTD/sodipodi-0.dtd"
   xmlns:inkscape="http://www.inkscape.org/namespaces/inkscape"
   role="img"
   viewBox="0 0 24 24"
   version="1.1"
   id="svg6"
   sodipodi:docname="mxlinux.svg"
   inkscape:version="0.92.4 5da689c313, 2019-01-14">
  <metadata
     id="metadata12">
    <rdf:RDF>
      <cc:Work
         rdf:about="">
        <dc:format>image/svg+xml</dc:format>
        <dc:type
           rdf:resource="http://purl.org/dc/dcmitype/StillImage" />
        <dc:title>MX Linux icon</dc:title>
      </cc:Work>
    </rdf:RDF>
  </metadata>
  <defs
     id="defs10" />
  <sodipodi:namedview
     pagecolor="#ffffff"
     bordercolor="#666666"
     borderopacity="1"
     objecttolerance="10"
     gridtolerance="10"
     guidetolerance="10"
     inkscape:pageopacity="0"
     inkscape:pageshadow="2"
     inkscape:window-width="1326"
     inkscape:window-height="718"
     id="namedview8"
     showgrid="false"
     inkscape:pagecheckerboard="true"
     inkscape:zoom="27.989799"
     inkscape:cx="8.0500398"
     inkscape:cy="10.570908"
     inkscape:window-x="40"
     inkscape:window-y="25"
     inkscape:window-maximized="1"
     inkscape:current-layer="svg6" />
  <title
     id="title2">MX Linux icon</title>
  <path
     d="M12.001 13.301l3.277 3.819-.75.9-2.133-2.521-1.131-1.338.737-.86zM24 2.41v19.182c0 .655-.531 1.186-1.186 1.186H1.186A1.186 1.186 0 0 1 0 21.591V2.409c0-.655.531-1.186 1.186-1.186h21.628c.655 0 1.186.53 1.186 1.186zm-2.241 17.09l-2.116-2.542-2.115-2.541-.586.704-3.25-3.788 4.913-5.73-1.175-1.008-4.76 5.549-4.743-5.527-1.947 1.67 5 5.827-.73.851-1.24-1.465-3.384 4-3.385 4h19.518z"
     id="path4"
     style="fill:#f5f5f5" />
</svg>
