<?xml version="1.0" encoding="UTF-8" standalone="no"?>
<svg
   xmlns:dc="http://purl.org/dc/elements/1.1/"
   xmlns:cc="http://creativecommons.org/ns#"
   xmlns:rdf="http://www.w3.org/1999/02/22-rdf-syntax-ns#"
   xmlns:svg="http://www.w3.org/2000/svg"
   xmlns="http://www.w3.org/2000/svg"
   xmlns:sodipodi="http://sodipodi.sourceforge.net/DTD/sodipodi-0.dtd"
   xmlns:inkscape="http://www.inkscape.org/namespaces/inkscape"
   width="256px"
   height="274px"
   viewBox="0 0 256 274"
   version="1.1"
   preserveAspectRatio="xMidYMid"
   id="svg12"
   sodipodi:docname="node-os-seeklogo.com.svg"
   inkscape:version="0.92.4 5da689c313, 2019-01-14">
  <metadata
     id="metadata18">
    <rdf:RDF>
      <cc:Work
         rdf:about="">
        <dc:format>image/svg+xml</dc:format>
        <dc:type
           rdf:resource="http://purl.org/dc/dcmitype/StillImage" />
        <dc:title></dc:title>
      </cc:Work>
    </rdf:RDF>
  </metadata>
  <defs
     id="defs16" />
  <sodipodi:namedview
     pagecolor="#ffffff"
     bordercolor="#666666"
     borderopacity="1"
     objecttolerance="10"
     gridtolerance="10"
     guidetolerance="10"
     inkscape:pageopacity="0"
     inkscape:pageshadow="2"
     inkscape:window-width="1326"
     inkscape:window-height="718"
     id="namedview14"
     showgrid="false"
     inkscape:pagecheckerboard="true"
     inkscape:zoom="1.9076756"
     inkscape:cx="112.19041"
     inkscape:cy="155.07703"
     inkscape:window-x="40"
     inkscape:window-y="25"
     inkscape:window-maximized="1"
     inkscape:current-layer="svg12" />
  <g
     id="g10"
     style="fill:#f5f5f5">
    <polygon
       points="159.13513,58.152822 159.13513,102.09395 193.72973,122.06703 193.72973,38.179748 128,0.23035461 62.27027,38.179748 62.27027,122.06749 96.864865,102.09395 96.864865,58.152822 128,40.177009 "
       id="polygon2"
       style="fill:#f5f5f5" />
    <polygon
       points="69.189189,126.06155 128,92.107186 186.81081,126.06155 128,160.01591 "
       id="polygon4"
       style="fill:#f5f5f5" />
    <path
       d="M 62.270192,130.05659 1.0531838e-4,166.00806 v 71.90346 L 62.270192,273.86223 124.54053,237.91152 v -71.90346 z m 0,31.95708 34.594661,19.97293 v 39.94636 L 62.270192,241.90615 27.675784,221.93296 V 181.9866 Z"
       id="path6"
       inkscape:connector-curvature="0"
       style="fill:#f5f5f5" />
    <polygon
       points="159.13513,213.94381 131.45946,197.96526 131.45946,237.91164 193.72973,273.86234 256,237.91164 256,221.93286 172.97297,173.9972 193.72973,162.01317 228.32432,181.98671 228.32432,189.97575 256,205.95431 256,166.00816 193.72973,130.05607 131.45946,166.00816 131.45946,181.98671 214.48649,229.92236 193.72973,241.90616 159.13513,221.93286 "
       id="polygon8"
       style="fill:#f5f5f5" />
  </g>
</svg>
