<?xml version="1.0" encoding="UTF-8" standalone="no"?>
<!-- Generator: Adobe Illustrator 21.0.0, SVG Export Plug-In . SVG Version: 6.00 Build 0)  -->

<svg
   xmlns:dc="http://purl.org/dc/elements/1.1/"
   xmlns:cc="http://creativecommons.org/ns#"
   xmlns:rdf="http://www.w3.org/1999/02/22-rdf-syntax-ns#"
   xmlns:svg="http://www.w3.org/2000/svg"
   xmlns="http://www.w3.org/2000/svg"
   xmlns:sodipodi="http://sodipodi.sourceforge.net/DTD/sodipodi-0.dtd"
   xmlns:inkscape="http://www.inkscape.org/namespaces/inkscape"
   version="1.1"
   id="katman_1"
   x="0px"
   y="0px"
   viewBox="0 0 860 819"
   style="enable-background:new 0 0 860 819;"
   xml:space="preserve"
   sodipodi:docname="pardus.svg"
   inkscape:version="0.92.4 5da689c313, 2019-01-14"><metadata
   id="metadata81"><rdf:RDF><cc:Work
       rdf:about=""><dc:format>image/svg+xml</dc:format><dc:type
         rdf:resource="http://purl.org/dc/dcmitype/StillImage" /><dc:title></dc:title></cc:Work></rdf:RDF></metadata><defs
   id="defs79" /><sodipodi:namedview
   pagecolor="#ffffff"
   bordercolor="#666666"
   borderopacity="1"
   objecttolerance="10"
   gridtolerance="10"
   guidetolerance="10"
   inkscape:pageopacity="0"
   inkscape:pageshadow="2"
   inkscape:window-width="1366"
   inkscape:window-height="714"
   id="namedview77"
   showgrid="false"
   inkscape:zoom="1.3936861"
   inkscape:cx="370.18769"
   inkscape:cy="409.5"
   inkscape:window-x="0"
   inkscape:window-y="26"
   inkscape:window-maximized="1"
   inkscape:current-layer="katman_1" />
<g
   id="g74"
   transform="matrix(1.0187597,0,0,1.0187597,-8.0666331,-22.496541)"
   style="fill:#f5f5f5">
	<g
   id="g72"
   style="fill:#f5f5f5">
		<g
   id="g70"
   style="fill:#f5f5f5">
			<path
   d="M 850.1,110.8 C 846.1,98.8 833.5,77.4 822.2,63.1 810.9,48.8 792.4,31.9 781.2,25.5 770,19.1 718.7,33.1 692.8,45 l -18.9,8.6 c -25.9,11.9 -47.5,21.7 -47.9,22 -0.4,0.2 -3.5,0 -5.8,-1 -2.4,-1 -31.2,-8.1 -59,-14.6 L 511.5,48.4 C 483.7,41.9 451.7,35.7 440.3,34.6 428.9,33.5 380.4,41.7 352.6,48 l -53.2,12.2 c -27.8,6.4 -52.5,12.2 -54.8,12.9 -2.4,0.7 -8.9,3.1 -9.4,2.8 -0.4,-0.3 -22.8,-10.5 -48.8,-22.4 L 167.5,44.9 C 141.5,33 109.5,22.5 96.4,21.6 83.2,20.6 49.5,48.7 38.1,63 26.5,77.4 14,98.9 9.9,110.8 c -4,11.9 17.8,59 33.8,82.6 l 32.6,48.4 c 15.9,23.6 24.7,51 19.5,60.7 -5.2,9.8 -12.4,27.2 -15.9,38.6 -3.5,11.5 0.5,61.8 5.3,90 l 10.2,60 c 4.8,28.1 13.7,60.5 19.9,72 6.2,11.5 55.1,31.8 82.8,38.7 l 12.4,3.1 c 27.7,6.9 64,31.4 80.6,54.5 l 22.4,30.9 c 16.7,23.1 38.4,48.5 48.3,56.4 9.9,7.9 51.7,14.4 68.1,14.4 16.5,0 39.9,-2.8 52.1,-6.2 12.2,-3.4 47.7,-41.5 64.3,-64.6 l 22,-30.5 c 16.7,-23.1 53,-47.7 80.6,-54.7 l 12.9,-3.2 c 27.7,-6.9 59.3,-18.4 70.3,-25.4 11,-7 27.5,-57.4 32.3,-85.5 l 10.2,-60 c 4.8,-28.1 8.4,-60.9 8.1,-73 -0.3,-12 -13.4,-45.8 -18.7,-55.6 -5.2,-9.7 3.6,-37.1 19.5,-60.7 l 32.6,-48.4 c 16.1,-23.5 38,-70.5 34,-82.5 z m -775.5,55 C 60.4,144.8 48.2,126 47.5,124.1 c 0,0 0,0 0,-2.2 0,-2.7 0,-2.7 0,-2.7 1.1,-2.5 11.3,-16.2 22.6,-30.5 11.3,-14.3 22.4,-26.8 24.7,-27.9 2.2,-1.1 29.6,9.8 55.5,21.6 l 4.1,1.9 c 25.9,11.9 46.8,22.2 46.3,22.9 -0.5,0.7 -12.6,23.3 -26,48.4 l -22.8,42.6 C 138.3,223.3 88.7,186.8 74.6,165.8 Z m 667.8,194.7 c 0.3,6.9 -3.3,35.7 -8.1,63.8 l -10.2,60 c -4.8,28.1 -10.4,54 -12.5,57.5 -2.1,3.5 -26.1,12 -46.7,17.2 -20.6,5.2 -36.8,6 -36,1.9 0.8,-4.1 -11.2,-33.1 -26.6,-55.5 -15.4,-22.4 -28,-40.1 -28,-39.4 0,0.8 3.5,19.2 7.5,39.2 3.9,20 6.8,41.3 6.4,47.4 -0.4,6.1 -7.4,20.2 -9.7,23.4 -2.3,3.2 -12.5,17.4 -22.8,31.6 -10.3,14.2 -30.8,42.7 -45.7,63.4 -14.9,20.6 -30.6,40.1 -34.9,43.4 -4.3,3.2 -28.5,5.9 -45,5.9 -16.5,0 -34.2,-1.3 -39.3,-3 -5.1,-1.6 -25.8,-25.8 -40.9,-46.6 -15,-20.8 -35.7,-49.5 -45.9,-63.6 -10.2,-14.2 -20.3,-28.2 -22.5,-31.2 -2.2,-3 -5.7,-10.2 -7.9,-15.9 -2.2,-5.7 0.9,-34.7 4.8,-54.7 3.9,-20 7.2,-36.9 7.4,-37.8 0.1,-0.8 -12.4,15.5 -27.9,37.9 -15.4,22.4 -27.8,44.1 -27.5,48.1 0.3,4 -14.5,10.4 -35.1,5.3 -20.6,-5.1 -40.2,-11.2 -43.5,-13.6 -3.3,-2.4 -10.9,-32.8 -15.7,-60.9 l -10.2,-60 c -4.8,-28.1 -8.4,-56.8 -8.1,-63.8 0.3,-7 8,-26.6 11.7,-33.6 3.8,-7 17.9,-33.4 31.3,-58.5 l 50,-93.5 c 13.5,-25.1 27.8,-49.2 32,-53.5 4.1,-4.3 15.5,-9.6 16,-9.7 0.5,-0.1 23.7,-5.4 51.5,-11.8 l 51.4,-11.8 c 27.8,-6.4 57.1,-12.1 65,-12.8 8,-0.6 47.5,6.6 75.3,13.1 l 47.9,11.2 c 27.8,6.5 50.9,11.9 51.4,12 0.5,0.1 5.2,2.6 10.4,5.5 5.2,2.9 24.2,32.7 37.6,57.8 l 50,93.5 c 13.4,25.1 27.6,51.5 31.3,58.5 3.8,7.1 11.5,26.6 11.8,33.6 z m 70.2,-236.4 c -0.7,1.9 -13,20.7 -27.1,41.7 -14.2,21 -63.7,57.6 -77.1,32.4 L 685.6,155.6 C 672.1,130.4 660.8,109.3 660.4,108.5 660,107.8 680,96.1 705.9,84.3 l 4,-1.9 c 25.9,-11.8 49.6,-21.6 52.5,-21.7 2.9,-0.1 16.3,13.7 27.7,28 11.3,14.3 21.5,28 22.6,30.5 0,0 0,0 0,2.7 -0.1,2.2 -0.1,2.2 -0.1,2.2 z"
   id="path2"
   inkscape:connector-curvature="0"
   style="fill:#f5f5f5" />
			<path
   d="m 357.5,506.8 c -6.1,-12.2 0.1,-22.3 13.8,-22.3 h 117.3 c 13.7,0 19.9,10.1 13.8,22.3 l -61.3,69.7 c -6.1,12.3 -16.1,12.3 -22.3,0 z"
   id="path4"
   inkscape:connector-curvature="0"
   style="fill:#f5f5f5" />
			<path
   d="m 430,656.3 c 0,0 8.3,7.6 18.4,16.8 l 39.8,36.4 c 10.2,9.2 21.2,10.2 24.6,2 3.4,-8.1 -3.1,-21.1 -14.4,-28.8 L 460.7,657 c -11.3,-7.7 -20.6,-14.3 -20.5,-14.6 0,-0.3 0.1,-12.4 0.1,-26.1 V 546 c 0,-13.7 -2.1,-29.6 -4.6,-35.2 0,0 0,0 -5.7,0 -5.7,0 -5.7,0 -5.7,0 -2.5,5.6 -4.6,21.5 -4.6,35.2 v 70.3 c 0,13.7 0,25.2 0,25.5 0,0.3 -9.2,7.4 -20.5,15.2 l -37.7,25.7 c -11.3,7.7 -17.8,20.7 -14.4,28.8 3.4,8.1 14.5,7.2 24.6,-2 l 39.9,-36.4 c 10.1,-9.2 18.4,-16.8 18.4,-16.8 z"
   id="path6"
   inkscape:connector-curvature="0"
   style="fill:#f5f5f5" />
			<g
   id="g12"
   style="fill:#f5f5f5">
				<path
   d="m 211.7,322.4 c -14.7,0.4 -14.9,2.5 -0.3,4.6 l 122.4,17.5 c 14.6,2.1 25.4,15.8 24,30.4 l -15.6,54.6 c -1.3,14.6 3.3,27.1 10.2,27.6 7,0.5 12.7,0.4 12.8,-0.1 0,-0.6 0.6,-13.1 1.2,-27.8 l 12.8,-51.3 c 0.6,-14.7 1.5,-34.3 1.9,-43.5 0.4,-9.2 -3.5,-16.6 -8.6,-16.5 -5.2,0.2 -21.4,0.6 -36.1,1 z"
   id="path8"
   inkscape:connector-curvature="0"
   style="fill:#f5f5f5" />
				<path
   d="m 523.7,318.9 c -14.7,-0.4 -31,-0.9 -36.1,-1 -5.2,-0.2 -9.1,7.3 -8.7,16.5 0.4,9.2 1.3,28.8 1.9,43.5 l 12.8,51.3 c 0.6,14.7 1.2,27.2 1.3,27.8 0,0.6 5.8,0.7 12.7,0.1 7,-0.5 11.6,-12.9 10.2,-27.6 l -15.6,-54.6 c -1.3,-14.6 9.5,-28.4 24,-30.4 L 648.6,327 c 14.6,-2.1 14.5,-4.1 -0.3,-4.6 z"
   id="path10"
   inkscape:connector-curvature="0"
   style="fill:#f5f5f5" />
			</g>
			<g
   id="g18"
   style="fill:#f5f5f5">
				<path
   d="m 321.7,340.9 c 0,9.4 -7.6,17 -17,17 -9.4,0 -17,-7.6 -17,-17 0,-9.4 7.6,-17 17,-17 9.4,0 17,7.6 17,17 z"
   id="path14"
   inkscape:connector-curvature="0"
   style="fill:#f5f5f5" />
				<path
   d="m 572.3,340.9 c 0,9.4 -7.6,17 -17,17 -9.4,0 -17,-7.6 -17,-17 0,-9.4 7.6,-17 17,-17 9.4,0 17,7.6 17,17 z"
   id="path16"
   inkscape:connector-curvature="0"
   style="fill:#f5f5f5" />
			</g>
			<g
   id="g48"
   style="fill:#f5f5f5">
				<g
   id="g32"
   style="fill:#f5f5f5">
					<g
   id="g22"
   style="fill:#f5f5f5">
						<path
   d="m 362.5,550 c -93.8,23.3 -186.6,71.3 -259,135.7 -5,4.4 1.2,11.3 6.5,7.7 82.4,-54.9 158.9,-102.8 254.5,-131.7 7.2,-2.1 5.6,-13.5 -2,-11.7 z"
   id="path20"
   inkscape:connector-curvature="0"
   style="fill:#f5f5f5" />
					</g>
					<g
   id="g26"
   style="fill:#f5f5f5">
						<path
   d="m 365,583.4 c -77.2,7.2 -150.1,82.4 -190.3,144.3 -2.6,4 2.6,9.3 6.4,5.8 56.9,-53.9 103.2,-124.4 185.6,-140.6 6.2,-1.2 4.4,-10.1 -1.7,-9.5 z"
   id="path24"
   inkscape:connector-curvature="0"
   style="fill:#f5f5f5" />
					</g>
					<g
   id="g30"
   style="fill:#f5f5f5">
						<path
   d="m 371.8,615.8 c -74.8,20 -135.2,107.7 -163.5,175.5 -2,4.7 4.7,7.8 7.6,4 47.1,-62.5 80,-140.8 158.8,-170.3 5.1,-1.9 2.4,-10.6 -2.9,-9.2 z"
   id="path28"
   inkscape:connector-curvature="0"
   style="fill:#f5f5f5" />
					</g>
				</g>
				<g
   id="g46"
   style="fill:#f5f5f5">
					<g
   id="g36"
   style="fill:#f5f5f5">
						<path
   d="m 494.4,561.5 c 95.8,29 173.3,77.3 255.8,132.3 5.6,3.7 10.6,-4.1 5.8,-8.3 -71.8,-63.8 -164.4,-112 -257.5,-135.1 -7.2,-1.9 -11.5,8.8 -4.1,11.1 z"
   id="path34"
   inkscape:connector-curvature="0"
   style="fill:#f5f5f5" />
					</g>
					<g
   id="g40"
   style="fill:#f5f5f5">
						<path
   d="m 493.7,593 c 81.8,16.1 128.2,86.4 184.7,140 4.1,3.9 9.7,-0.9 6.6,-5.6 -40,-61.6 -113.3,-136.9 -190.4,-144.1 -6.3,-0.6 -6.9,8.5 -0.9,9.7 z"
   id="path38"
   inkscape:connector-curvature="0"
   style="fill:#f5f5f5" />
					</g>
					<g
   id="g44"
   style="fill:#f5f5f5">
						<path
   d="m 485.7,625.2 c 78.6,29.5 111.6,108 158.6,170.5 3.1,4.1 9.1,-0.3 7.2,-4.7 C 623.4,723.6 563.2,635.9 489,616.1 c -5.9,-1.6 -9.3,6.8 -3.3,9.1 z"
   id="path42"
   inkscape:connector-curvature="0"
   style="fill:#f5f5f5" />
					</g>
				</g>
			</g>
			<g
   id="g68"
   style="fill:#f5f5f5">
				<g
   id="g58"
   style="fill:#f5f5f5">
					<path
   d="m 296.7,156.7 c 0,18.9 -12.3,34.3 -27.4,34.3 -15.1,0 -27.4,-15.4 -27.4,-34.3 0,-19 12.3,-34.3 27.4,-34.3 15.2,0 27.4,15.4 27.4,34.3 z"
   id="path50"
   inkscape:connector-curvature="0"
   style="fill:#f5f5f5" />
					<path
   d="m 259.7,222.6 c 0,12.6 -10.2,22.9 -22.8,22.9 -12.6,0 -22.9,-10.2 -22.9,-22.9 0,-12.6 10.2,-22.9 22.9,-22.9 12.6,0 22.8,10.3 22.8,22.9 z"
   id="path52"
   inkscape:connector-curvature="0"
   style="fill:#f5f5f5" />
					<path
   d="m 363.9,148.1 c -4.6,14.4 -14.2,24.3 -21.4,22 -7.2,-2.3 -9.4,-15.9 -4.7,-30.3 4.6,-14.4 14.2,-24.3 21.4,-22 7.1,2.3 9.3,15.9 4.7,30.3 z"
   id="path54"
   inkscape:connector-curvature="0"
   style="fill:#f5f5f5" />
					<path
   d="m 329.4,229.6 c 0,7.6 -7.2,13.7 -16,13.7 -8.8,0 -16,-6.1 -16,-13.7 0,-7.6 7.2,-13.7 16,-13.7 8.8,0 16,6.2 16,13.7 z"
   id="path56"
   inkscape:connector-curvature="0"
   style="fill:#f5f5f5" />
				</g>
				<g
   id="g66"
   style="fill:#f5f5f5">
					<path
   d="m 666.7,491.5 c -5.6,11.3 -1.1,25 10.3,30.7 11.3,5.6 25,1.1 30.7,-10.2 5.6,-11.3 1,-25 -10.3,-30.7 -11.4,-5.8 -25.1,-1.2 -30.7,10.2 z"
   id="path60"
   inkscape:connector-curvature="0"
   style="fill:#f5f5f5" />
					<path
   d="m 672,433 c -2.3,15 1.8,28.1 9.3,29.2 7.5,1.2 15.5,-10 17.8,-25 2.3,-15 -1.8,-28.1 -9.3,-29.2 -7.5,-1.1 -15.4,10.1 -17.8,25 z"
   id="path62"
   inkscape:connector-curvature="0"
   style="fill:#f5f5f5" />
					<path
   d="m 630,467.8 c -3.4,6.8 0.3,15.5 8.2,19.4 7.9,4 17.1,1.7 20.4,-5.1 3.4,-6.8 -0.3,-15.5 -8.2,-19.4 -7.9,-4 -17.1,-1.6 -20.4,5.1 z"
   id="path64"
   inkscape:connector-curvature="0"
   style="fill:#f5f5f5" />
				</g>
			</g>
		</g>
	</g>
</g>
</svg>