<?xml version="1.0" encoding="UTF-8" standalone="no"?>
<svg
   xmlns:dc="http://purl.org/dc/elements/1.1/"
   xmlns:cc="http://creativecommons.org/ns#"
   xmlns:rdf="http://www.w3.org/1999/02/22-rdf-syntax-ns#"
   xmlns:svg="http://www.w3.org/2000/svg"
   xmlns="http://www.w3.org/2000/svg"
   xmlns:sodipodi="http://sodipodi.sourceforge.net/DTD/sodipodi-0.dtd"
   xmlns:inkscape="http://www.inkscape.org/namespaces/inkscape"
   width="735pt"
   height="726pt"
   viewBox="0 0 735 726"
   version="1.1"
   id="svg20"
   sodipodi:docname="pisilinux.svg"
   inkscape:version="0.92.4 5da689c313, 2019-01-14">
  <metadata
     id="metadata26">
    <rdf:RDF>
      <cc:Work
         rdf:about="">
        <dc:format>image/svg+xml</dc:format>
        <dc:type
           rdf:resource="http://purl.org/dc/dcmitype/StillImage" />
        <dc:title></dc:title>
      </cc:Work>
    </rdf:RDF>
  </metadata>
  <defs
     id="defs24" />
  <sodipodi:namedview
     pagecolor="#ffffff"
     bordercolor="#666666"
     borderopacity="1"
     objecttolerance="10"
     gridtolerance="10"
     guidetolerance="10"
     inkscape:pageopacity="0"
     inkscape:pageshadow="2"
     inkscape:window-width="1326"
     inkscape:window-height="718"
     id="namedview22"
     showgrid="false"
     inkscape:pagecheckerboard="true"
     inkscape:zoom="0.32756641"
     inkscape:cx="342.49567"
     inkscape:cy="618.00844"
     inkscape:window-x="40"
     inkscape:window-y="25"
     inkscape:window-maximized="1"
     inkscape:current-layer="svg20" />
  <g
     id="#ffffffff"
     transform="translate(-953.59116,-66.477988)">
    <path
       d="m 1001.63,79.71 c 27.74,4.43 55.44,10.07 81.88,19.76 38.03,13.6 73.66,34.48 103.14,62.2 30.08,-21.16 64.07,-37.66 100.5,-44.04 35.8,-6.52 73.15,-1.81 106.89,11.48 22.48,8.72 43.51,20.87 63.09,34.89 26.71,-25.48 58.67,-45.13 92.81,-59 30.09,-12.11 61.89,-19.33 93.9,-24.12 10.94,45.55 17.63,92.22 18.88,139.09 0.82,40 -2.16,80.58 -14.13,118.96 -4.58,14.49 -10.66,28.53 -18.46,41.59 3.85,8.16 8.09,16.13 12.03,24.26 7.91,17.29 15.79,34.6 22.54,52.39 5.63,13.69 9.98,27.86 14.95,41.8 -18.48,58.82 -51.27,113.13 -95.2,156.44 -15.58,15.43 -32.5,29.49 -50.5,42 31.65,24.59 63.29,49.19 94.94,73.78 3.41,2.22 3.77,7.97 0.25,10.26 -1.79,1.24 -4.09,0.36 -5.57,-0.91 -32.94,-25.63 -65.93,-51.21 -98.84,-76.88 -5.91,3.79 -11.9,7.42 -17.97,10.93 26.39,21.23 53.48,41.59 80.06,62.58 3.49,2.38 3.15,8.65 -0.86,10.29 -2.08,0.92 -4.01,-0.68 -5.57,-1.82 -27.86,-21.81 -55.9,-43.37 -83.71,-65.24 -32.35,16.82 -66.95,29.48 -102.74,36.58 -85,17.07 -175.85,3.74 -252.02,-37.79 -24.91,19.33 -49.78,38.71 -74.67,58.06 -4.87,3.34 -8.95,7.84 -14.32,10.41 -5.18,0.57 -7.08,-7.18 -3.41,-10.08 27.38,-21.44 54.93,-42.68 82.34,-64.09 -6.1,-3.52 -12.12,-7.19 -17.96,-11.12 -32.77,25.4 -65.48,50.87 -98.21,76.32 -2.01,1.47 -4.03,3.76 -6.78,3.25 -4.33,-1.32 -4.82,-7.83 -1.37,-10.37 32.35,-25.17 64.72,-50.32 97.08,-75.47 -54.66,-38.36 -98.79,-91.51 -126.54,-152.24 -6.74,-14.55 -12.21,-29.64 -17.24,-44.86 8.81,-26.42 18.46,-52.59 30.08,-77.92 6.47,-15.01 13.98,-29.54 21.29,-44.15 0.98,-1.44 -0.47,-2.94 -1,-4.22 -15.25,-27.91 -22.49,-59.41 -26.18,-90.78 -5.88,-53.26 -1.68,-107.19 7.6,-159.81 2.46,-14.25 5.31,-28.43 9,-42.41 m 12.47,19.04 c -11.82,56.45 -18.48,114.49 -13.44,172.15 2.73,29.54 8.39,59.31 21.27,86.25 22.16,-40.02 47.42,-78.45 76.72,-113.63 21.78,-26.71 46.18,-51.39 73.34,-72.66 -20.61,-18.95 -44.53,-34.07 -69.85,-45.88 -27.95,-12.77 -57.76,-21.2 -88.04,-26.23 m 535.07,24.63 c -28.02,12.25 -54.5,28.52 -76.91,49.42 23.16,18.29 44.32,39.06 63.58,61.4 33.29,38.66 61.91,81.2 86.5,125.86 8.89,-18.35 14.72,-38.09 18.16,-58.17 3.9,-21.72 5.62,-43.8 5.71,-65.86 0.32,-45.78 -5.58,-91.42 -15.01,-136.16 -28.13,4.63 -55.82,12.25 -82.03,23.51 m -223.64,8.1 c -5.09,61.19 -10.13,122.39 -15.24,183.58 -2.18,0.18 -4.34,0.37 -6.49,0.55 -15.42,-57.61 -30.88,-115.22 -46.29,-172.83 -2.97,1.06 -5.92,2.17 -8.88,3.24 11.23,61.15 22.54,122.29 33.94,183.41 -2.06,0.83 -4.11,1.65 -6.17,2.44 -30.86,-49.15 -61.81,-98.23 -92.69,-147.37 -54.95,42.93 -97.71,99.31 -133.51,158.65 -29.34,49.22 -53.83,101.42 -71.77,155.87 24.34,75.3 74.53,141.8 139.86,186.37 25.65,-19.75 51.13,-39.71 76.71,-59.55 1.9,-1.84 5.29,-2.05 6.8,0.41 2.11,2.76 1.28,7.14 -1.64,9.02 -24.15,18.78 -48.32,37.54 -72.46,56.34 6.1,3.63 12.09,7.46 18.34,10.83 31.04,-23.83 61.65,-48.24 92.85,-71.86 5.4,-2.75 9.03,6.72 4.48,9.59 -28.91,22.73 -58.05,45.15 -87.02,67.8 32.71,16.96 68.13,28.61 104.45,34.68 74.79,12.61 153.56,0.92 221.17,-33.58 -29.25,-22.79 -58.55,-45.52 -87.8,-68.31 -3.29,-2.12 -3.69,-7.6 -0.43,-9.91 1.71,-1.55 4.14,-0.7 5.7,0.62 30.93,24.04 61.86,48.07 92.78,72.12 6.35,-3.27 12.41,-7.06 18.52,-10.74 -25,-19.59 -50.25,-38.88 -75.15,-58.59 -4.53,-3.66 0.55,-13.19 5.84,-8.66 26.34,20.21 52.47,40.73 78.72,61.07 66.41,-44.44 117.28,-111.63 141.91,-187.67 -11.99,-36.32 -26.86,-71.68 -44.19,-105.77 -16.04,-31.46 -33.81,-62.08 -53.99,-91.07 -16.84,-25.05 -35.75,-48.7 -56.24,-70.84 -23.97,-25.63 -50.61,-49.04 -80.63,-67.35 -30.6,-18.56 -65.41,-31.53 -101.48,-32.49 z"
       id="path2"
       inkscape:connector-curvature="0"
       style="opacity:1;fill:#ffffff" />
    <path
       d="m 1117.69,442.8 c 22.68,-6.15 46.98,-7.96 69.93,-2.19 15.97,3.85 30.6,13.47 39.97,27.02 8.81,13 12.62,28.81 13.26,44.36 0.81,17.04 -2,33.96 -5.38,50.6 -21.83,4.83 -44.97,5.09 -66.48,-1.4 -17.12,-4.98 -32.38,-16.3 -41.78,-31.48 -7.63,-12.56 -11.37,-27.17 -12.4,-41.74 -1.08,-15.11 0.51,-30.26 2.88,-45.17 m 17.15,15.31 c -1.92,14.17 -2.44,28.76 0.81,42.78 3.3,14.45 11.58,28.38 24.68,35.88 17.65,10.44 39.03,11.76 58.98,9.61 1.67,-9.97 2.7,-20.04 3.06,-30.13 -10.57,10.24 -28.22,12.26 -40.59,4.12 -12.97,-7.91 -18.84,-25.57 -13.04,-39.64 3.56,-9.43 11.78,-16.77 21.38,-19.72 -17.67,-6.41 -36.98,-5.93 -55.28,-2.9 z"
       id="path4"
       inkscape:connector-curvature="0"
       style="opacity:1;fill:#ffffff" />
    <path
       d="m 1437.38,450.57 c 11.73,-7.77 25.66,-11.64 39.57,-12.9 17.81,-1.53 35.86,0.36 53.08,5.14 3.6,22.43 5.32,45.91 -1.21,67.99 -4.67,16.43 -15.13,31.22 -29.38,40.69 -11.77,7.73 -25.53,12.14 -39.48,13.59 -15.89,2.13 -32.09,0.97 -47.71,-2.47 -4.81,-23.27 -8.29,-47.68 -2.53,-71.11 3.74,-16.43 13.6,-31.54 27.66,-40.93 m 20.52,10.5 c 7.83,2.6 14.82,7.94 18.92,15.17 8.05,13.37 4.52,32.28 -7.77,41.88 -12.32,10.43 -32.37,9.48 -43.7,-1.99 0.32,10.14 1.36,20.26 3.07,30.26 16.13,1.65 32.91,1.26 48.26,-4.5 12.32,-4.4 23.25,-13.01 29.32,-24.73 9.46,-18.04 9.57,-39.3 6.88,-59.04 -18.2,-2.94 -37.47,-3.71 -54.98,2.95 z"
       id="path6"
       inkscape:connector-curvature="0"
       style="opacity:1;fill:#ffffff" />
    <path
       d="m 1259.09,610.67 c 40.89,-11.72 85.05,-11.71 125.94,0 -3.87,6.41 -9.05,11.85 -13.76,17.62 -8.18,9.79 -16.38,19.57 -24.56,29.36 -5.85,7.1 -11.74,15.55 -21.35,17.55 0.03,10.66 0.01,21.32 0.01,31.98 -2.23,-0.01 -4.45,-0.01 -6.65,0 -0.02,-10.67 -0.02,-21.34 0,-32.01 -6.54,-1.41 -11.94,-5.81 -15.99,-10.96 -12.78,-15.52 -25.77,-30.87 -38.62,-46.32 -1.87,-2.28 -3.45,-4.76 -5.02,-7.22 z"
       id="path8"
       inkscape:connector-curvature="0"
       style="opacity:1;fill:#ffffff" />
  </g>
</svg>
