<?xml version="1.0" encoding="UTF-8" standalone="no"?>
<svg
   xmlns:dc="http://purl.org/dc/elements/1.1/"
   xmlns:cc="http://creativecommons.org/ns#"
   xmlns:rdf="http://www.w3.org/1999/02/22-rdf-syntax-ns#"
   xmlns:svg="http://www.w3.org/2000/svg"
   xmlns="http://www.w3.org/2000/svg"
   xmlns:sodipodi="http://sodipodi.sourceforge.net/DTD/sodipodi-0.dtd"
   xmlns:inkscape="http://www.inkscape.org/namespaces/inkscape"
   role="img"
   viewBox="0 0 24 24"
   version="1.1"
   id="svg6"
   sodipodi:docname="redhat.svg"
   inkscape:version="0.92.4 5da689c313, 2019-01-14">
  <metadata
     id="metadata12">
    <rdf:RDF>
      <cc:Work
         rdf:about="">
        <dc:format>image/svg+xml</dc:format>
        <dc:type
           rdf:resource="http://purl.org/dc/dcmitype/StillImage" />
        <dc:title>Red Hat icon</dc:title>
      </cc:Work>
    </rdf:RDF>
  </metadata>
  <defs
     id="defs10" />
  <sodipodi:namedview
     pagecolor="#ffffff"
     bordercolor="#666666"
     borderopacity="1"
     objecttolerance="10"
     gridtolerance="10"
     guidetolerance="10"
     inkscape:pageopacity="0"
     inkscape:pageshadow="2"
     inkscape:window-width="1366"
     inkscape:window-height="714"
     id="namedview8"
     showgrid="false"
     inkscape:zoom="21.625651"
     inkscape:cx="10.615218"
     inkscape:cy="12"
     inkscape:window-x="0"
     inkscape:window-y="26"
     inkscape:window-maximized="1"
     inkscape:current-layer="svg6" />
  <title
     id="title2">Red Hat icon</title>
  <path
     d="M16.009 13.386c1.577 0 3.86-.326 3.86-2.202a1.765 1.765 0 0 0-.04-.431l-.94-4.08c-.216-.898-.406-1.305-1.982-2.093-1.223-.625-3.888-1.658-4.676-1.658-.733 0-.947.946-1.822.946-.842 0-1.467-.706-2.255-.706-.757 0-1.25.515-1.63 1.576 0 0-1.06 2.99-1.197 3.424a.81.81 0 0 0-.028.245c0 1.162 4.577 4.974 10.71 4.974m4.101-1.435c.218 1.032.218 1.14.218 1.277 0 1.765-1.984 2.745-4.593 2.745-5.895.004-11.06-3.451-11.06-5.734a2.326 2.326 0 0 1 .19-.925C2.746 9.415 0 9.794 0 12.217c0 3.969 9.405 8.861 16.851 8.861 5.71 0 7.149-2.582 7.149-4.62 0-1.605-1.387-3.425-3.887-4.512"
     id="path4"
     style="fill:#f5f5f5" />
</svg>
