<?xml version="1.0" encoding="UTF-8" standalone="no"?>
<!-- Created with Inkscape (http://www.inkscape.org/) -->

<svg
   xmlns:dc="http://purl.org/dc/elements/1.1/"
   xmlns:cc="http://creativecommons.org/ns#"
   xmlns:rdf="http://www.w3.org/1999/02/22-rdf-syntax-ns#"
   xmlns:svg="http://www.w3.org/2000/svg"
   xmlns="http://www.w3.org/2000/svg"
   xmlns:sodipodi="http://sodipodi.sourceforge.net/DTD/sodipodi-0.dtd"
   xmlns:inkscape="http://www.inkscape.org/namespaces/inkscape"
   width="74.161499mm"
   height="56.644306mm"
   viewBox="0 0 262.77697 200.70817"
   id="svg2"
   version="1.1"
   inkscape:version="0.92.4 5da689c313, 2019-01-14"
   sodipodi:docname="redstar.svg">
  <defs
     id="defs4" />
  <sodipodi:namedview
     id="base"
     pagecolor="#ffffff"
     bordercolor="#666666"
     borderopacity="1.0"
     inkscape:pageopacity="0.0"
     inkscape:pageshadow="2"
     inkscape:zoom="2.1771155"
     inkscape:cx="74.970002"
     inkscape:cy="135.27514"
     inkscape:document-units="px"
     inkscape:current-layer="layer1"
     showgrid="false"
     fit-margin-top="0"
     fit-margin-left="0"
     fit-margin-right="0"
     fit-margin-bottom="0"
     inkscape:window-width="1366"
     inkscape:window-height="714"
     inkscape:window-x="0"
     inkscape:window-y="26"
     inkscape:window-maximized="1" />
  <metadata
     id="metadata7">
    <rdf:RDF>
      <cc:Work
         rdf:about="">
        <dc:format>image/svg+xml</dc:format>
        <dc:type
           rdf:resource="http://purl.org/dc/dcmitype/StillImage" />
        <dc:title></dc:title>
      </cc:Work>
    </rdf:RDF>
  </metadata>
  <g
     inkscape:label="1. réteg"
     inkscape:groupmode="layer"
     id="layer1"
     transform="translate(-196.23629,-191.82432)">
    <path
       style="fill:#f5f5f5;fill-opacity:1"
       d="m 311.848,392.06554 c -9.52416,-2.20479 -23.06923,-11.22035 -33.81351,-22.50618 -10.72703,-11.2677 -27.61882,-34.94565 -26.96254,-37.79457 0.42393,-1.84041 10.61525,-15.09178 18.53962,-24.10637 8.28316,-9.42273 20.88243,-21.45351 23.24925,-22.20023 0.94306,-0.29753 2.56246,1.89553 3.80794,5.1569 3.63765,9.5253 9.3055,16.68533 14.65736,18.5162 3.50048,1.19753 9.14427,-2.43616 12.19799,-7.85354 1.20259,-2.13333 2.59566,-4.14049 3.09582,-4.46035 2.02317,-1.29384 18.33454,9.80292 25.96056,17.66118 4.17619,4.30338 5.32684,6.46666 4.9207,9.25111 -1.4052,9.63372 -12.81986,41.24554 -18.40261,50.96428 -1.22326,2.12941 -4.25824,6.08598 -6.74453,8.79237 -6.91865,7.53115 -13.37143,10.23083 -20.50605,8.5792 z m -109.42294,-4.97085 c -3.89155,-1.06757 -6.01256,-3.58228 -6.18529,-7.33339 -0.30526,-6.62909 19.51009,-37.7749 40.07304,-62.9869 10.47577,-12.84421 25.60148,-29.6403 32.33795,-35.90911 4.92736,-4.58528 4.40592,-5.02877 -2.52065,-2.14393 -12.16638,5.06718 -24.31031,15.55271 -28.7289,24.80565 -0.90123,1.88724 -2.04332,3.69016 -2.53795,4.0065 -1.28641,0.82268 -8.8964,-12.74319 -12.25278,-21.84232 -3.14075,-8.51451 -3.20295,-17.18775 -0.14812,-20.65491 3.56685,-4.04827 13.33789,-6.35302 36.12246,-8.52039 28.05345,-2.66857 62.21611,-3.61536 105.82429,-2.93284 51.34087,0.80354 80.16452,-0.82316 91.0911,-5.14085 1.90579,-0.75308 3.4864,-0.97678 3.51246,-0.49711 0.10054,1.84986 -12.96971,13.02279 -21.10501,18.04135 -12.73895,7.8585 -18.2853,9.5852 -30.30912,9.4359 -5.46179,-0.0678 -14.36247,-1.04231 -19.77931,-2.16553 -5.41686,-1.12322 -13.57519,-2.61636 -18.12964,-3.31809 -11.30332,-1.74156 -51.23531,-1.74273 -65.31969,-0.002 -12.72817,1.57319 -10.81017,0.30484 -23.4748,15.5236 -13.69756,16.46001 -32.54046,42.77109 -39.67566,55.40068 -3.02655,5.35676 -3.39698,6.66145 -2.48572,8.75 1.24648,2.85688 1.971,2.93648 9.37886,1.0304 l 5.53488,-1.42415 2.55579,4.67415 c 1.40568,2.57078 4.86137,7.9921 7.67931,12.04738 5.01362,7.21507 5.06104,7.41584 2.21052,9.35934 -4.28385,2.92075 -15.96888,7.27804 -24.42821,9.10915 -14.32177,3.10011 -33.05778,4.38324 -39.23976,2.68734 z m 165.59696,-73.39503 c -1.78086,-0.74356 -6.87056,-3.90141 -11.31044,-7.01743 -13.63916,-9.57233 -28.79516,-14.4416 -40.36768,-12.96917 -6.14066,0.7813 -5.71045,-0.176 1.20186,-2.67436 4.05426,-1.46536 7.62406,-1.93396 14.84872,-1.94917 10.65268,-0.0224 19.01596,2.01392 36.30578,8.84003 14.9611,5.90672 25.8156,7.29305 34.83139,4.44864 2.93411,-0.92569 0.20026,2.27511 -4.69526,5.49724 -2.59585,1.70854 -6.62836,3.87284 -8.9611,4.80956 -5.53671,2.22328 -17.61542,2.7841 -21.85327,1.01466 z m 12.63645,-17.98234 c -3.93658,-1.30996 -10.52714,-3.58861 -14.64567,-5.06365 -4.11854,-1.47504 -13.46439,-4.05474 -20.76857,-5.73265 -12.29952,-2.82544 -14.40904,-3.01368 -28.56326,-2.5488 -8.40562,0.27607 -16.55689,0.84091 -18.11391,1.2552 -5.54128,1.4744 -0.0143,-1.7339 7.86608,-4.56614 19.44637,-6.98906 37.22098,-7.07326 67.79519,-0.32113 22.81204,5.0379 41.12964,5.61555 55.85651,1.76147 2.74208,-0.71762 2.73892,-0.70545 -0.626,2.40788 -14.5905,13.49962 -32.55375,18.21413 -48.80037,12.80782 z m -78.01353,-46.10067 c 0.1392,-0.24695 6.4109,-5.75944 13.93712,-12.25 16.07758,-13.8652 37.79074,-30.60627 51.02008,-39.33703 l 9.40263,-6.2053 1.99676,1.76833 c 2.38451,2.11173 3.47281,11.75388 2.45395,21.74168 -0.95973,9.40806 -4.18003,29.90505 -4.75458,30.26242 -0.24561,0.15277 -7.43358,0.42542 -15.97328,0.6059 l -15.52671,0.32813 1.24589,-6.95264 c 0.86734,-4.84014 0.69808,-7.40244 -0.55708,-8.433 -1.71952,-1.41184 -2.11103,-1.30769 -8.45857,2.25024 -3.66058,2.05183 -10.1796,6.64202 -14.48669,10.20042 l -7.8311,6.46983 h -6.36075 c -3.49842,0 -6.24687,-0.20204 -6.10767,-0.44898 z"
       id="path4147"
       inkscape:connector-curvature="0" />
  </g>
</svg>
