<?xml version="1.0" encoding="UTF-8" standalone="no"?>
<svg
   xmlns:dc="http://purl.org/dc/elements/1.1/"
   xmlns:cc="http://creativecommons.org/ns#"
   xmlns:rdf="http://www.w3.org/1999/02/22-rdf-syntax-ns#"
   xmlns:svg="http://www.w3.org/2000/svg"
   xmlns="http://www.w3.org/2000/svg"
   xmlns:sodipodi="http://sodipodi.sourceforge.net/DTD/sodipodi-0.dtd"
   xmlns:inkscape="http://www.inkscape.org/namespaces/inkscape"
   role="img"
   viewBox="0 0 24 24"
   version="1.1"
   id="svg6"
   sodipodi:docname="steamos.svg"
   inkscape:version="0.92.4 5da689c313, 2019-01-14">
  <metadata
     id="metadata12">
    <rdf:RDF>
      <cc:Work
         rdf:about="">
        <dc:format>image/svg+xml</dc:format>
        <dc:type
           rdf:resource="http://purl.org/dc/dcmitype/StillImage" />
        <dc:title>Steam icon</dc:title>
      </cc:Work>
    </rdf:RDF>
  </metadata>
  <defs
     id="defs10" />
  <sodipodi:namedview
     pagecolor="#ffffff"
     bordercolor="#666666"
     borderopacity="1"
     objecttolerance="10"
     gridtolerance="10"
     guidetolerance="10"
     inkscape:pageopacity="0"
     inkscape:pageshadow="2"
     inkscape:window-width="1326"
     inkscape:window-height="718"
     id="namedview8"
     showgrid="false"
     inkscape:pagecheckerboard="true"
     inkscape:zoom="21.779297"
     inkscape:cx="10.615218"
     inkscape:cy="12.527796"
     inkscape:window-x="40"
     inkscape:window-y="25"
     inkscape:window-maximized="1"
     inkscape:current-layer="svg6" />
  <title
     id="title2">Steam icon</title>
  <path
     d="M11.979 0C5.678 0 .511 4.86.022 11.037l6.432 2.658c.545-.371 1.203-.59 1.912-.59.063 0 .125.004.188.006l2.861-4.142V8.91c0-2.495 2.028-4.524 4.524-4.524 2.494 0 4.524 2.031 4.524 4.527s-2.03 4.525-4.524 4.525h-.105l-4.076 2.911c0 .052.004.105.004.159 0 1.875-1.515 3.396-3.39 3.396-1.635 0-3.016-1.173-3.331-2.727L.436 15.27C1.862 20.307 6.486 24 11.979 24c6.627 0 11.999-5.373 11.999-12S18.605 0 11.979 0zM7.54 18.21l-1.473-.61c.262.543.714.999 1.314 1.25 1.297.539 2.793-.076 3.332-1.375.263-.63.264-1.319.005-1.949s-.75-1.121-1.377-1.383c-.624-.26-1.29-.249-1.878-.03l1.523.63c.956.4 1.409 1.5 1.009 2.455-.397.957-1.497 1.41-2.454 1.012H7.54zm11.415-9.303c0-1.662-1.353-3.015-3.015-3.015-1.665 0-3.015 1.353-3.015 3.015 0 1.665 1.35 3.015 3.015 3.015 1.663 0 3.015-1.35 3.015-3.015zm-5.273-.005c0-1.252 1.013-2.266 2.265-2.266 1.249 0 2.266 1.014 2.266 2.266 0 1.251-1.017 2.265-2.266 2.265-1.253 0-2.265-1.014-2.265-2.265z"
     id="path4"
     style="fill:#f5f5f5" />
</svg>
