<?xml version="1.0" encoding="UTF-8" standalone="no"?>
<svg
   xmlns:dc="http://purl.org/dc/elements/1.1/"
   xmlns:cc="http://creativecommons.org/ns#"
   xmlns:rdf="http://www.w3.org/1999/02/22-rdf-syntax-ns#"
   xmlns:svg="http://www.w3.org/2000/svg"
   xmlns="http://www.w3.org/2000/svg"
   xmlns:sodipodi="http://sodipodi.sourceforge.net/DTD/sodipodi-0.dtd"
   xmlns:inkscape="http://www.inkscape.org/namespaces/inkscape"
   role="img"
   viewBox="0 0 24 24"
   version="1.1"
   id="svg6"
   sodipodi:docname="tux.svg"
   inkscape:version="0.92.4 5da689c313, 2019-01-14">
  <metadata
     id="metadata12">
    <rdf:RDF>
      <cc:Work
         rdf:about="">
        <dc:format>image/svg+xml</dc:format>
        <dc:type
           rdf:resource="http://purl.org/dc/dcmitype/StillImage" />
        <dc:title>Linux icon</dc:title>
      </cc:Work>
    </rdf:RDF>
  </metadata>
  <defs
     id="defs10" />
  <sodipodi:namedview
     pagecolor="#ffffff"
     bordercolor="#666666"
     borderopacity="1"
     objecttolerance="10"
     gridtolerance="10"
     guidetolerance="10"
     inkscape:pageopacity="0"
     inkscape:pageshadow="2"
     inkscape:window-width="1366"
     inkscape:window-height="714"
     id="namedview8"
     showgrid="false"
     inkscape:zoom="21.609691"
     inkscape:cx="18.02543"
     inkscape:cy="9.5844932"
     inkscape:window-x="0"
     inkscape:window-y="26"
     inkscape:window-maximized="1"
     inkscape:current-layer="svg6"
     inkscape:pagecheckerboard="true" />
  <title
     id="title2">Linux icon</title>
  <path
     inkscape:connector-curvature="0"
     style="fill:#f5f5f5;stroke-width:2.40075541"
     d="m 13.473709,17.333494 c -1.920605,0.895478 -3.7067677,0.885877 -4.9071459,0.79945 -1.4308497,-0.10324 -2.5832123,-0.496952 -3.0873714,-0.837862 -0.3121132,-0.211251 -0.7370316,-0.129655 -0.9482971,0.182459 -0.2112518,0.312113 -0.1296544,0.734634 0.1824589,0.945895 0.813854,0.549782 2.2519069,0.960306 3.7547798,1.06834 0.2544935,0.01927 0.535368,0.03131 0.8354656,0.03131 1.3084111,0 2.9697311,-0.12484 4.7462921,-0.953106 0.340907,-0.158481 0.489752,-0.564184 0.331309,-0.905093 -0.158448,-0.340906 -0.564181,-0.489752 -0.907488,-0.331309 z m 7.581583,-1.010717 C 21.120102,10.400112 21.729904,-0.79461304 10.388735,0.1080727 -0.8095878,1.0107584 2.1589481,12.83928 1.9932938,16.800527 1.844444,18.896388 1.1482283,21.45799 0.16631882,24.06521 H 3.1936722 c 0.3097052,-1.104347 0.5401694,-2.196691 0.6386021,-3.23862 0.1824588,0.127248 0.3769163,0.249677 0.5857842,0.36732 0.3384981,0.199246 0.6289977,0.465744 0.9386958,0.746633 0.7202272,0.657808 1.5364823,1.402039 3.1353878,1.495674 0.1056467,0.0048 0.2136598,0.0096 0.3193018,0.0096 1.6157071,0 2.7200531,-0.708222 3.6083341,-1.274803 0.424933,-0.273689 0.792248,-0.508963 1.137957,-0.621796 0.981908,-0.307296 1.841381,-0.804251 2.482381,-1.435651 0.100834,-0.09843 0.194464,-0.199246 0.280878,-0.30248 0.357714,1.308329 0.847469,2.782388 1.390038,4.254054 h 6.462832 c -1.550886,-2.395918 -3.152192,-4.743853 -3.118579,-7.74 z M 3.0760373,13.100963 c 0,0 0,0 0,0 -0.1104254,-1.935008 0.813854,-3.5603232 2.0670504,-3.6323437 1.250792,-0.07441 2.3575398,1.4356527 2.4679749,3.3682597 0,0 0,0 0,0 0.00481,0.105647 0.00963,0.208878 0.00963,0.309706 -0.3985264,0.100834 -0.7562371,0.244861 -1.0755399,0.412929 -0.00239,-0.0145 -0.00239,-0.0289 -0.00481,-0.0408 v -0.0025 C 6.4347278,12.419105 5.8489401,11.590845 5.2319448,11.665269 c -0.616992,0.07441 -1.0299218,1.025123 -0.9218879,2.122266 0,0.0025 0,0.0025 0,0.0025 0.045613,0.477751 0.1848666,0.905084 0.3769161,1.229189 -0.048022,0.03842 -0.1824586,0.136847 -0.3384981,0.249678 -0.1176493,0.08404 -0.2592743,0.189647 -0.4297342,0.314486 C 3.4529949,14.971171 3.1336953,14.092491 3.0760785,13.100982 Z M 15.764027,17.87847 c -0.04562,1.022718 -1.382834,1.985424 -2.616822,2.36954 l -0.0072,0.0025 c -0.513745,0.165637 -0.969889,0.460945 -1.454843,0.770639 -0.816255,0.520967 -1.656521,1.058734 -2.8737044,1.058734 -0.079223,0 -0.1608541,-0.0025 -0.2424862,-0.0072 C 7.4550025,22.007749 6.9340388,21.532415 6.276231,20.932224 5.9281214,20.615329 5.5680096,20.286422 5.1022617,20.015142 l -0.00963,-0.0048 C 4.091513,19.443707 3.4697153,18.740288 3.4313041,18.128091 3.4120397,17.82561 3.5465446,17.561516 3.8346329,17.345449 c 0.6241953,-0.46815 1.0419275,-0.773046 1.3180133,-0.977112 0.3072971,-0.223257 0.4009276,-0.290474 0.4705467,-0.35771 0.048022,-0.04562 0.1008268,-0.09842 0.1584474,-0.153631 0.573782,-0.556974 1.5316835,-1.48847 3.0057464,-1.48847 0.9002854,0 1.8965973,0.345707 2.9577313,1.027525 0.499356,0.326492 0.933892,0.475348 1.486067,0.667411 0.376921,0.129654 0.806655,0.27847 1.382834,0.523362 l 0.0096,0.0048 c 0.535372,0.220884 1.169168,0.621798 1.140361,1.286807 z m -0.295291,-2.398361 c -0.10324,-0.05281 -0.211252,-0.100833 -0.324086,-0.14885 -0.518562,-0.220884 -0.933893,-0.372117 -1.277204,-0.492152 0.189649,-0.372119 0.307297,-0.837867 0.319303,-1.342025 v 0 c 0.02649,-1.229186 -0.592987,-2.225498 -1.382837,-2.2279 -0.792248,0 -1.452456,0.993911 -1.478865,2.220699 v 0 c -0.0025,0.0408 -0.0025,0.08163 -0.0025,0.120027 -0.48495,-0.223258 -0.965103,-0.386521 -1.4332514,-0.48495 -0.00248,-0.04802 -0.00484,-0.09364 -0.00484,-0.139253 v -0.0025 C 9.8388396,10.748098 11.212074,8.8947184 12.95022,8.8491037 c 1.73815,-0.048022 3.183402,1.7261413 3.229018,3.9636483 v 0.0025 c 0.02168,1.010718 -0.249677,1.942211 -0.713025,2.664839 z"
     id="path14" />
</svg>
