<?xml version="1.0" encoding="UTF-8" standalone="no"?>
<svg
   xmlns:dc="http://purl.org/dc/elements/1.1/"
   xmlns:cc="http://creativecommons.org/ns#"
   xmlns:rdf="http://www.w3.org/1999/02/22-rdf-syntax-ns#"
   xmlns:svg="http://www.w3.org/2000/svg"
   xmlns="http://www.w3.org/2000/svg"
   xmlns:sodipodi="http://sodipodi.sourceforge.net/DTD/sodipodi-0.dtd"
   xmlns:inkscape="http://www.inkscape.org/namespaces/inkscape"
   role="img"
   viewBox="0 0 24 24"
   version="1.1"
   id="svg6"
   sodipodi:docname="ubuntu.svg"
   inkscape:version="0.92.4 5da689c313, 2019-01-14"
   width="24"
   height="24">
  <metadata
     id="metadata12">
    <rdf:RDF>
      <cc:Work
         rdf:about="">
        <dc:format>image/svg+xml</dc:format>
        <dc:type
           rdf:resource="http://purl.org/dc/dcmitype/StillImage" />
        <dc:title>Ubuntu icon</dc:title>
      </cc:Work>
    </rdf:RDF>
  </metadata>
  <defs
     id="defs10" />
  <sodipodi:namedview
     pagecolor="#ffffff"
     bordercolor="#666666"
     borderopacity="1"
     objecttolerance="10"
     gridtolerance="10"
     guidetolerance="10"
     inkscape:pageopacity="0"
     inkscape:pageshadow="2"
     inkscape:window-width="1326"
     inkscape:window-height="718"
     id="namedview8"
     showgrid="false"
     inkscape:zoom="15.388923"
     inkscape:cx="3.4070137"
     inkscape:cy="10.536297"
     inkscape:window-x="40"
     inkscape:window-y="25"
     inkscape:window-maximized="1"
     inkscape:current-layer="svg6"
     inkscape:pagecheckerboard="true" />
  <title
     id="title2">Ubuntu icon</title>
  <path
     d="M 12,0 C 18.623,0 24,5.377 24,12 24,18.623 18.623,24 12,24 5.377,24 0,18.623 0,12 0,5.377 5.377,0 12,0 Z m 3.279,17.68 c -0.766,0.441 -1.029,1.422 -0.586,2.189 0.441,0.765 1.422,1.028 2.188,0.584 0.766,-0.441 1.029,-1.422 0.585,-2.189 -0.441,-0.765 -1.421,-1.028 -2.187,-0.584 z M 12,16.68 c -0.705,0 -1.373,-0.157 -1.971,-0.435 L 8.916,18.24 c 0.93,0.459 1.978,0.721 3.084,0.721 0.646,0 1.268,-0.091 1.86,-0.256 0.104,-0.643 0.485,-1.234 1.095,-1.587 0.609,-0.351 1.313,-0.386 1.92,-0.156 1.186,-1.163 1.957,-2.749 2.07,-4.515 L 16.66,12.414 C 16.45,14.805 14.445,16.68 12,16.68 Z M 7.32,12 c 0,-1.583 0.787,-2.981 1.99,-3.83 L 8.14,6.209 c -1.404,0.93 -2.445,2.369 -2.881,4.035 0.506,0.404 0.83,1.034 0.83,1.74 0,0.704 -0.324,1.319 -0.83,1.739 0.436,1.665 1.477,3.104 2.881,4.034 L 9.31,15.792 C 8.107,14.97 7.32,13.574 7.32,12 Z M 3.84,10.398 c -0.885,0 -1.602,0.717 -1.602,1.602 0,0.885 0.717,1.602 1.602,1.602 0.885,0 1.601,-0.717 1.601,-1.602 0,-0.885 -0.716,-1.602 -1.601,-1.602 z M 12,7.32 c 2.445,0 4.45,1.875 4.66,4.265 l 2.285,-0.034 C 18.832,9.786 18.06,8.201 16.875,7.035 16.266,7.267 15.562,7.229 14.955,6.881 14.346,6.529 13.965,5.936 13.86,5.29 13.266,5.13 12.646,5.04 12,5.04 10.89,5.04 9.845,5.3 8.916,5.76 l 1.113,1.995 C 10.629,7.476 11.297,7.32 12,7.32 Z M 15.279,6.319 C 16.044,6.761 17.025,6.5 17.468,5.734 17.909,4.969 17.649,3.988 16.88,3.544 16.115,3.104 15.134,3.365 14.691,4.133 14.25,4.897 14.511,5.877 15.279,6.319 Z"
     id="path4"
     style="fill:#f5f5f5"
     inkscape:connector-curvature="0" />
</svg>
