<?xml version="1.0" encoding="UTF-8" standalone="no"?>
<svg
   xmlns:dc="http://purl.org/dc/elements/1.1/"
   xmlns:cc="http://creativecommons.org/ns#"
   xmlns:rdf="http://www.w3.org/1999/02/22-rdf-syntax-ns#"
   xmlns:svg="http://www.w3.org/2000/svg"
   xmlns="http://www.w3.org/2000/svg"
   xmlns:sodipodi="http://sodipodi.sourceforge.net/DTD/sodipodi-0.dtd"
   xmlns:inkscape="http://www.inkscape.org/namespaces/inkscape"
   role="img"
   viewBox="0 0 24 24"
   version="1.1"
   id="svg6"
   sodipodi:docname="ubuntumate.svg"
   inkscape:version="0.92.4 5da689c313, 2019-01-14"
   width="24"
   height="24">
  <metadata
     id="metadata12">
    <rdf:RDF>
      <cc:Work
         rdf:about="">
        <dc:format>image/svg+xml</dc:format>
        <dc:type
           rdf:resource="http://purl.org/dc/dcmitype/StillImage" />
        <dc:title>Ubuntu icon</dc:title>
      </cc:Work>
    </rdf:RDF>
  </metadata>
  <defs
     id="defs10" />
  <sodipodi:namedview
     pagecolor="#ffffff"
     bordercolor="#666666"
     borderopacity="1"
     objecttolerance="10"
     gridtolerance="10"
     guidetolerance="10"
     inkscape:pageopacity="0"
     inkscape:pageshadow="2"
     inkscape:window-width="1326"
     inkscape:window-height="718"
     id="namedview8"
     showgrid="false"
     inkscape:zoom="12.050535"
     inkscape:cx="2.8935772"
     inkscape:cy="10.536297"
     inkscape:window-x="40"
     inkscape:window-y="25"
     inkscape:window-maximized="1"
     inkscape:current-layer="svg6"
     inkscape:pagecheckerboard="true" />
  <title
     id="title2">Ubuntu icon</title>
  <path
     style="fill:#f5f5f5;fill-opacity:1;stroke-width:0.16439857"
     d="m 11.95379,0.13590857 c -6.5372657,0 -11.83669597,5.29926453 -11.83669597,11.83669643 0,6.53702 5.29943027,11.836698 11.83669597,11.836698 6.537183,0 11.836697,-5.299761 11.836697,-11.836698 0,-6.5374319 -5.299514,-11.83669643 -11.836697,-11.83669643 z m 1.977921,3.20063453 4.598022,2.7177141 -4.60316,2.7177134 z M 11.95379,4.7339308 c 0.337225,0 0.666977,0.026877 0.991529,0.071927 v 1.0069423 c -0.32276,-0.052208 -0.653318,-0.082203 -0.991529,-0.082203 -2.6292503,0 -4.8777909,1.6113424 -5.8001866,3.9044654 L 5.3007862,9.1315929 C 6.4081964,6.5500271 8.9730894,4.7339308 11.95379,4.7339308 Z m 0,2.4608411 c 0.337665,0 0.667718,0.040199 0.986392,0.1078868 V 8.3250122 C 12.62569,8.240933 12.295201,8.1965765 11.95379,8.1965765 c -1.726691,0 -3.168289,1.1473857 -3.6219053,2.7228505 L 7.4482423,10.395407 C 8.1018918,8.5355579 9.877572,7.1947719 11.95379,7.1947719 Z m 5.805325,0.4572338 c 0.900344,1.2070598 1.433351,2.7038533 1.433351,4.3205993 0,1.641943 -0.55339,3.160573 -1.479588,4.377112 l -0.857955,-0.508608 c 0.839506,-1.06274 1.340876,-2.404286 1.340876,-3.868504 0,-1.436718 -0.483354,-2.7588834 -1.294639,-3.8119914 z m -2.142319,1.2689514 c 0.693652,0.8296671 1.114828,1.8926829 1.114828,3.0516479 0,1.185149 -0.439224,2.275485 -1.161066,3.113298 l -0.878504,-0.518882 c 0.642172,-0.674411 1.037766,-1.583069 1.037766,-2.594416 0,-0.982626 -0.371658,-1.872698 -0.981254,-2.5430401 z M 3.5746011,9.2548918 8.1726238,11.972605 3.5694634,14.690319 Z m 4.7572836,3.7708912 c 0.4536163,1.574222 1.8952143,2.717714 3.6219053,2.717714 0.341475,0 0.671816,-0.04582 0.986392,-0.128436 v 1.027491 c -0.318674,0.0677 -0.648727,0.107887 -0.986392,0.107887 -2.0778192,0 -3.8532796,-1.343656 -4.5055477,-3.205773 z m -2.1782813,1.284364 c 0.9223957,2.293125 3.1709363,3.904466 5.8001866,3.904466 0.33493,0 0.661312,-0.02657 0.981254,-0.07707 v 1.001803 c -0.320667,0.0446 -0.648067,0.07193 -0.981254,0.07193 -2.9807006,0 -5.5455936,-1.8161 -6.6530038,-4.397662 z m 7.7729696,0.950429 4.598023,2.712577 -4.60316,2.717713 z"
     id="path3171-7-3-3-8-7-0-9-6"
     inkscape:connector-curvature="0" />
</svg>
